G04*
G04 #@! TF.GenerationSoftware,Altium Limited,Altium Designer,19.1.5 (86)*
G04*
G04 Layer_Color=16711935*
%FSLAX25Y25*%
%MOIN*%
G70*
G01*
G75*
%ADD13C,0.00787*%
%ADD15C,0.01000*%
%ADD16C,0.00300*%
%ADD59C,0.00394*%
D13*
X294957Y249299D02*
X312673D01*
X294957Y236701D02*
Y249299D01*
Y236701D02*
X312673D01*
Y249299D01*
D15*
X475311Y288689D02*
Y312311D01*
X451689D02*
X475311D01*
X451689Y288689D02*
Y312311D01*
Y288689D02*
X475311D01*
D16*
X399200Y300998D02*
Y296833D01*
X400033Y296000D01*
X401699D01*
X402532Y296833D01*
Y300998D01*
X407531Y296000D02*
X404198D01*
X407531Y299332D01*
Y300165D01*
X406698Y300998D01*
X405031D01*
X404198Y300165D01*
D59*
X391539Y314142D02*
G03*
X391539Y314142I-1181J0D01*
G01*
X418268Y247331D02*
G03*
X418268Y247331I-1969J0D01*
G01*
X386815Y278315D02*
X426185D01*
X386815Y317685D02*
X426185D01*
Y278315D02*
Y317685D01*
X386815Y278315D02*
Y317685D01*
X340370Y334406D02*
Y341295D01*
X336630Y334406D02*
Y341295D01*
Y334406D02*
X340370D01*
X336630Y341295D02*
X340370D01*
X348870Y333906D02*
Y340795D01*
X345130Y333906D02*
Y340795D01*
Y333906D02*
X348870D01*
X345130Y340795D02*
X348870D01*
X330370Y335055D02*
Y341945D01*
X326630Y335055D02*
Y341945D01*
Y335055D02*
X330370D01*
X326630Y341945D02*
X330370D01*
X321870Y335055D02*
Y341945D01*
X318130Y335055D02*
Y341945D01*
Y335055D02*
X321870D01*
X318130Y341945D02*
X321870D01*
X332295Y291130D02*
Y294870D01*
X325406Y291130D02*
Y294870D01*
X332295D01*
X325406Y291130D02*
X332295D01*
X338370Y317555D02*
Y324445D01*
X334630Y317555D02*
Y324445D01*
Y317555D02*
X338370D01*
X334630Y324445D02*
X338370D01*
X293968Y268779D02*
Y275866D01*
X282551Y268779D02*
X293968D01*
X282551D02*
Y275866D01*
X293968D01*
X290228D02*
X293968Y272126D01*
X296945Y305130D02*
Y308870D01*
X290055Y305130D02*
Y308870D01*
Y305130D02*
X296945D01*
X290055Y308870D02*
X296945D01*
X400157Y235126D02*
Y250874D01*
X419843Y235126D02*
Y250874D01*
X400157Y235126D02*
X419843D01*
X400157Y250874D02*
X419843D01*
X413295Y216630D02*
Y220370D01*
X406406Y216630D02*
Y220370D01*
Y216630D02*
X413295D01*
X406406Y220370D02*
X413295D01*
X443705Y264130D02*
Y267870D01*
X450594Y264130D02*
Y267870D01*
X443705D02*
X450594D01*
X443705Y264130D02*
X450594D01*
X340094Y361630D02*
Y365370D01*
X333205Y361630D02*
Y365370D01*
Y361630D02*
X340094D01*
X333205Y365370D02*
X340094D01*
X329370Y318055D02*
Y324945D01*
X325630Y318055D02*
Y324945D01*
Y318055D02*
X329370D01*
X325630Y324945D02*
X329370D01*
X321370Y318906D02*
Y325795D01*
X317630Y318906D02*
Y325795D01*
Y318906D02*
X321370D01*
X317630Y325795D02*
X321370D01*
X428055Y358130D02*
Y361870D01*
X434945Y358130D02*
Y361870D01*
X428055D02*
X434945D01*
X428055Y358130D02*
X434945D01*
X428555Y369630D02*
Y373370D01*
X435445Y369630D02*
Y373370D01*
X428555D02*
X435445D01*
X428555Y369630D02*
X435445D01*
X411555Y336630D02*
Y340370D01*
X418445Y336630D02*
Y340370D01*
X411555Y336630D02*
X418445D01*
X411555Y340370D02*
X418445D01*
X300630Y275295D02*
X304370D01*
X300630Y268406D02*
X304370D01*
Y275295D01*
X300630Y268406D02*
Y275295D01*
X318945Y365130D02*
Y368870D01*
X312055Y365130D02*
Y368870D01*
Y365130D02*
X318945D01*
X312055Y368870D02*
X318945D01*
X373870Y314555D02*
Y321445D01*
X370130Y314555D02*
Y321445D01*
Y314555D02*
X373870D01*
X370130Y321445D02*
X373870D01*
X348870Y316555D02*
Y323445D01*
X345130Y316555D02*
Y323445D01*
Y316555D02*
X348870D01*
X345130Y323445D02*
X348870D01*
X361807Y362130D02*
Y365870D01*
X368697Y362130D02*
Y365870D01*
X361807D02*
X368697D01*
X361807Y362130D02*
X368697D01*
X292626Y319051D02*
X296366Y322791D01*
Y319051D02*
Y330468D01*
X289279D02*
X296366D01*
X289279Y319051D02*
Y330468D01*
Y319051D02*
X296366D01*
X290626Y353551D02*
X294366Y357291D01*
Y353551D02*
Y364968D01*
X287279D02*
X294366D01*
X287279Y353551D02*
Y364968D01*
Y353551D02*
X294366D01*
X361205Y379870D02*
X368094D01*
X361205Y376130D02*
X368094D01*
X361205D02*
Y379870D01*
X368094Y376130D02*
Y379870D01*
X333870Y382055D02*
Y388945D01*
X330130Y382055D02*
Y388945D01*
X333870D01*
X330130Y382055D02*
X333870D01*
M02*
