G04*
G04 #@! TF.GenerationSoftware,Altium Limited,Altium Designer,19.1.5 (86)*
G04*
G04 Layer_Physical_Order=1*
G04 Layer_Color=255*
%FSLAX25Y25*%
%MOIN*%
G70*
G01*
G75*
%ADD15C,0.01000*%
%ADD19R,0.02441X0.02264*%
%ADD20R,0.04134X0.03937*%
%ADD21O,0.02362X0.08661*%
%ADD22R,0.06122X0.05118*%
%ADD23R,0.03937X0.04134*%
%ADD24R,0.03150X0.03150*%
%ADD25R,0.02264X0.02441*%
%ADD43O,0.07087X0.01181*%
%ADD44O,0.01181X0.07087*%
%ADD45O,0.05500X0.07500*%
%ADD46R,0.05500X0.07500*%
%ADD47R,0.05906X0.05906*%
%ADD48C,0.05906*%
%ADD49O,0.07500X0.05500*%
%ADD50R,0.07500X0.05500*%
%ADD51C,0.08465*%
%ADD52C,0.05000*%
G36*
X509971Y404366D02*
Y165029D01*
X216529D01*
Y166000D01*
Y404471D01*
X509867D01*
X509971Y404366D01*
D02*
G37*
%LPC*%
G36*
X334968Y391717D02*
X329031D01*
Y385917D01*
X329031Y385583D01*
X329031Y385083D01*
Y383880D01*
X308000D01*
X307415Y383763D01*
X306919Y383432D01*
X301419Y377932D01*
X301087Y377436D01*
X300971Y376850D01*
Y359105D01*
X300509Y358914D01*
X299081Y360341D01*
X298585Y360673D01*
X298000Y360789D01*
X297632D01*
Y365220D01*
X293368D01*
Y364529D01*
X283834D01*
X278907Y369455D01*
X278411Y369787D01*
X277826Y369903D01*
X275750D01*
Y372124D01*
X266250D01*
Y364624D01*
X268912D01*
X269021Y364154D01*
X268109Y363776D01*
X267325Y363175D01*
X266724Y362391D01*
X266347Y361479D01*
X266218Y360500D01*
X266278Y360041D01*
X262119Y355881D01*
X260119Y353881D01*
X259787Y353385D01*
X259671Y352800D01*
Y279000D01*
X259787Y278415D01*
X260119Y277919D01*
X261493Y276545D01*
X261989Y276213D01*
X262030Y276205D01*
X262224Y275735D01*
X262825Y274952D01*
X263609Y274350D01*
X264521Y273973D01*
X265500Y273844D01*
X267500D01*
X268479Y273973D01*
X269391Y274350D01*
X270175Y274952D01*
X270776Y275735D01*
X271153Y276647D01*
X271282Y277626D01*
X271153Y278605D01*
X270776Y279517D01*
X270175Y280300D01*
X269391Y280902D01*
X268479Y281279D01*
X268588Y281750D01*
X271250D01*
Y283971D01*
X279366D01*
X282990Y280347D01*
Y279132D01*
X282299D01*
Y274868D01*
X286730D01*
Y269777D01*
X286039D01*
Y268146D01*
X288260D01*
Y267146D01*
X286039D01*
Y265514D01*
X286730D01*
Y250893D01*
X283366Y247529D01*
X271250D01*
Y249750D01*
X267000D01*
Y246000D01*
X266500D01*
Y245500D01*
X261750D01*
Y242250D01*
X264412D01*
X264521Y241779D01*
X263609Y241402D01*
X262825Y240800D01*
X262224Y240017D01*
X261846Y239105D01*
X261718Y238126D01*
X261846Y237147D01*
X262224Y236235D01*
X262825Y235452D01*
X263609Y234850D01*
X264521Y234472D01*
X264759Y234441D01*
Y233937D01*
X264521Y233906D01*
X263609Y233528D01*
X262825Y232927D01*
X262224Y232143D01*
X261846Y231231D01*
X261718Y230252D01*
X261846Y229273D01*
X262224Y228361D01*
X262825Y227577D01*
X263609Y226976D01*
X264521Y226599D01*
X265500Y226470D01*
X267500D01*
X268479Y226599D01*
X269391Y226976D01*
X270175Y227577D01*
X270776Y228361D01*
X271153Y229273D01*
X271282Y230252D01*
X271153Y231231D01*
X270776Y232143D01*
X270175Y232927D01*
X269391Y233528D01*
X268479Y233906D01*
X268241Y233937D01*
Y234441D01*
X268479Y234472D01*
X269391Y234850D01*
X270175Y235452D01*
X270776Y236235D01*
X271153Y237147D01*
X271282Y238126D01*
X271153Y239105D01*
X270776Y240017D01*
X270175Y240800D01*
X269391Y241402D01*
X268479Y241779D01*
X268588Y242250D01*
X271250D01*
Y244471D01*
X284000D01*
X284585Y244587D01*
X285081Y244919D01*
X289341Y249178D01*
X289673Y249675D01*
X289789Y250260D01*
Y265514D01*
X290480D01*
Y266116D01*
X294800D01*
X295385Y266233D01*
X295881Y266564D01*
X296489Y267171D01*
X299532D01*
Y265634D01*
X302000D01*
Y268701D01*
X303000D01*
Y265634D01*
X305469D01*
Y267171D01*
X309800D01*
X310385Y267288D01*
X310881Y267619D01*
X313432Y270170D01*
X313763Y270666D01*
X313880Y271251D01*
Y364032D01*
X315417D01*
Y364032D01*
X315583D01*
Y364032D01*
X317120D01*
Y358675D01*
X316884Y358577D01*
X316153Y358016D01*
X315592Y357285D01*
X315240Y356433D01*
X315119Y355520D01*
X315240Y354606D01*
X315592Y353754D01*
X316153Y353023D01*
X316884Y352462D01*
X317736Y352110D01*
X318650Y351989D01*
X319563Y352110D01*
X320415Y352462D01*
X321146Y353023D01*
X321707Y353754D01*
X322059Y354606D01*
X322180Y355520D01*
X322059Y356433D01*
X321707Y357285D01*
X321146Y358016D01*
X320415Y358577D01*
X320179Y358675D01*
Y364032D01*
X321716D01*
Y365471D01*
X330433D01*
Y360531D01*
X334404D01*
X337297Y357639D01*
X337376Y357586D01*
X337425Y357088D01*
X334649Y354312D01*
X334414Y354410D01*
X333500Y354530D01*
X332586Y354410D01*
X331735Y354057D01*
X331004Y353496D01*
X330443Y352765D01*
X330090Y351914D01*
X329970Y351000D01*
X330090Y350086D01*
X330443Y349235D01*
X331004Y348504D01*
X331334Y348250D01*
Y347750D01*
X331004Y347496D01*
X330443Y346765D01*
X330090Y345914D01*
X329970Y345000D01*
X330090Y344086D01*
X330443Y343235D01*
X331004Y342504D01*
X331735Y341943D01*
X332586Y341590D01*
X333500Y341470D01*
X334414Y341590D01*
X335265Y341943D01*
X335996Y342504D01*
X336557Y343235D01*
X336910Y344086D01*
X337030Y345000D01*
X336910Y345914D01*
X336812Y346149D01*
X345634Y354971D01*
X359419D01*
X359640Y354522D01*
X359443Y354265D01*
X359090Y353414D01*
X358970Y352500D01*
X359090Y351586D01*
X359443Y350735D01*
X360004Y350004D01*
X360735Y349443D01*
X361586Y349090D01*
X362500Y348970D01*
X363414Y349090D01*
X364003Y349334D01*
X381688Y331649D01*
X381590Y331414D01*
X381470Y330500D01*
X381590Y329586D01*
X381943Y328735D01*
X382504Y328004D01*
X383235Y327443D01*
X384086Y327090D01*
X385000Y326970D01*
X385914Y327090D01*
X386765Y327443D01*
X387496Y328004D01*
X388057Y328735D01*
X388410Y329586D01*
X388530Y330500D01*
X388410Y331414D01*
X388057Y332265D01*
X387496Y332996D01*
X386765Y333557D01*
X385914Y333910D01*
X385000Y334030D01*
X384086Y333910D01*
X383851Y333812D01*
X365929Y351734D01*
X366030Y352500D01*
X365910Y353414D01*
X365557Y354265D01*
X365360Y354522D01*
X365581Y354971D01*
X378471D01*
Y353500D01*
X378587Y352915D01*
X378919Y352419D01*
X393688Y337649D01*
X393590Y337414D01*
X393470Y336500D01*
X393590Y335586D01*
X393943Y334735D01*
X394504Y334004D01*
X395235Y333443D01*
X396086Y333090D01*
X396799Y332996D01*
X397003Y332492D01*
X394592Y330081D01*
X394260Y329585D01*
X394144Y329000D01*
Y323267D01*
X394052Y322803D01*
Y316898D01*
X394175Y316277D01*
X394527Y315751D01*
X395053Y315399D01*
X395673Y315276D01*
X396294Y315399D01*
X396820Y315751D01*
X397171Y316277D01*
X397295Y316898D01*
Y322803D01*
X397203Y323267D01*
Y328366D01*
X408581Y339745D01*
X408913Y340242D01*
X409029Y340827D01*
Y342500D01*
X408913Y343085D01*
X408581Y343581D01*
X392361Y359802D01*
X391865Y360133D01*
X391280Y360250D01*
X367566D01*
X367375Y360712D01*
X368000Y361337D01*
Y363500D01*
X365837D01*
X365079Y362742D01*
X364579Y362949D01*
Y366575D01*
X363533D01*
Y370700D01*
X363417Y371285D01*
X363085Y371781D01*
X363029Y371837D01*
Y374678D01*
X363383Y375031D01*
X364567Y375031D01*
X365067Y375031D01*
X370866D01*
Y376471D01*
X385047D01*
Y371047D01*
X390790D01*
X391419Y370419D01*
X391915Y370087D01*
X392500Y369971D01*
X425783D01*
Y368531D01*
X426821D01*
Y362968D01*
X425283D01*
Y357031D01*
X431083D01*
X431417Y357031D01*
X431917Y357031D01*
X435554D01*
X440119Y352466D01*
X440616Y352134D01*
X441201Y352018D01*
X451064D01*
X451164Y351518D01*
X451007Y351453D01*
X450181Y350819D01*
X449547Y349993D01*
X449149Y349032D01*
X449013Y348000D01*
X449149Y346968D01*
X449341Y346504D01*
X445996Y343159D01*
X445454Y343324D01*
X445413Y343529D01*
X445081Y344025D01*
X444585Y344356D01*
X444000Y344473D01*
X443415Y344356D01*
X442919Y344025D01*
X442850Y343922D01*
X422836Y323908D01*
X422410Y323950D01*
X421884Y324301D01*
X421264Y324425D01*
X420643Y324301D01*
X420117Y323950D01*
X419766Y323424D01*
X419642Y322803D01*
Y316898D01*
X419766Y316277D01*
X420117Y315751D01*
X420643Y315399D01*
X421264Y315276D01*
X421884Y315399D01*
X422410Y315751D01*
X422762Y316277D01*
X422886Y316898D01*
Y319632D01*
X441971Y338717D01*
X442471Y338510D01*
Y289507D01*
X441971Y289378D01*
X441496Y289996D01*
X440765Y290557D01*
X439914Y290910D01*
X439000Y291030D01*
X438086Y290910D01*
X437235Y290557D01*
X436978Y290360D01*
X436529Y290581D01*
Y298856D01*
X436906Y299165D01*
X437086Y299090D01*
X438000Y298970D01*
X438914Y299090D01*
X439765Y299443D01*
X440496Y300004D01*
X441057Y300735D01*
X441410Y301586D01*
X441530Y302500D01*
X441410Y303414D01*
X441057Y304265D01*
X440496Y304996D01*
X439765Y305557D01*
X438914Y305910D01*
X438000Y306030D01*
X437086Y305910D01*
X436235Y305557D01*
X435504Y304996D01*
X434943Y304265D01*
X434590Y303414D01*
X434470Y302500D01*
X434590Y301586D01*
X434688Y301351D01*
X433919Y300581D01*
X433587Y300085D01*
X433471Y299500D01*
Y292762D01*
X428350D01*
X428350Y292762D01*
X424532D01*
X423946Y292645D01*
X423773Y292529D01*
X421633D01*
X420081Y294081D01*
X419585Y294413D01*
X419000Y294529D01*
X415155D01*
X415057Y294765D01*
X414496Y295496D01*
X413765Y296057D01*
X413442Y296191D01*
X413344Y296681D01*
X416081Y299419D01*
X416413Y299915D01*
X416529Y300500D01*
Y306414D01*
X416413Y306999D01*
X416081Y307496D01*
X415496Y308081D01*
X414999Y308413D01*
X414414Y308529D01*
X410982D01*
Y316434D01*
X411074Y316898D01*
Y319350D01*
X407831D01*
Y316898D01*
X407923Y316434D01*
Y307586D01*
X408040Y307000D01*
X408371Y306504D01*
X408957Y305919D01*
X409453Y305587D01*
X410039Y305471D01*
X413471D01*
Y301133D01*
X412117Y299780D01*
X411693Y300063D01*
X411910Y300586D01*
X412030Y301500D01*
X411910Y302414D01*
X411557Y303265D01*
X410996Y303996D01*
X410265Y304557D01*
X409414Y304910D01*
X408500Y305030D01*
X407586Y304910D01*
X407351Y304812D01*
X400581Y311581D01*
X400085Y311913D01*
X399500Y312029D01*
X396155D01*
X396057Y312265D01*
X395496Y312996D01*
X394765Y313557D01*
X393914Y313910D01*
X393000Y314030D01*
X392086Y313910D01*
X391235Y313557D01*
X390504Y312996D01*
X389943Y312265D01*
X389590Y311414D01*
X389470Y310500D01*
X389590Y309586D01*
X389943Y308735D01*
X390504Y308004D01*
X391235Y307443D01*
X392086Y307090D01*
X393000Y306970D01*
X393914Y307090D01*
X394765Y307443D01*
X395496Y308004D01*
X396057Y308735D01*
X396155Y308971D01*
X398867D01*
X405188Y302649D01*
X405090Y302414D01*
X404970Y301500D01*
X405090Y300586D01*
X405443Y299735D01*
X405984Y299029D01*
X405956Y298858D01*
X405844Y298529D01*
X403005D01*
X402679Y299029D01*
X402910Y299586D01*
X403030Y300500D01*
X402910Y301414D01*
X402557Y302265D01*
X401996Y302996D01*
X401265Y303557D01*
X400414Y303910D01*
X399500Y304030D01*
X398586Y303910D01*
X397735Y303557D01*
X397004Y302996D01*
X396443Y302265D01*
X396345Y302029D01*
X394000D01*
X393415Y301913D01*
X392919Y301581D01*
X391419Y300081D01*
X391087Y299585D01*
X390971Y299000D01*
Y289000D01*
X391087Y288415D01*
X391419Y287919D01*
X393419Y285919D01*
X393915Y285587D01*
X394500Y285471D01*
X405436D01*
X405516Y285455D01*
X405955D01*
Y281031D01*
X405568Y280714D01*
X405516Y280724D01*
X404895Y280601D01*
X404531Y280358D01*
X404168Y280601D01*
X403547Y280724D01*
X402927Y280601D01*
X402563Y280358D01*
X402199Y280601D01*
X401579Y280724D01*
X400958Y280601D01*
X400595Y280358D01*
X400231Y280601D01*
X399610Y280724D01*
X398990Y280601D01*
X398626Y280358D01*
X398262Y280601D01*
X397642Y280724D01*
X397021Y280601D01*
X396657Y280358D01*
X396294Y280601D01*
X395673Y280724D01*
X395053Y280601D01*
X394689Y280358D01*
X394325Y280601D01*
X393705Y280724D01*
X393084Y280601D01*
X392721Y280358D01*
X392357Y280601D01*
X391736Y280724D01*
X391116Y280601D01*
X390589Y280249D01*
X390238Y279723D01*
X390114Y279102D01*
Y276813D01*
X385004Y271703D01*
X384673Y271206D01*
X384556Y270621D01*
Y264000D01*
X384673Y263415D01*
X385004Y262919D01*
X390004Y257919D01*
X390500Y257587D01*
X391086Y257471D01*
X400545D01*
X400794Y256971D01*
X400445Y256449D01*
X400276Y255598D01*
Y249299D01*
X400445Y248448D01*
X400927Y247727D01*
X401649Y247245D01*
X402500Y247075D01*
X403351Y247245D01*
X404073Y247727D01*
X404555Y248448D01*
X404724Y249299D01*
Y255598D01*
X404555Y256449D01*
X404073Y257171D01*
X404029Y257200D01*
Y258414D01*
X403913Y258999D01*
X403581Y259496D01*
X402996Y260081D01*
X402499Y260413D01*
X401914Y260529D01*
X391719D01*
X387615Y264633D01*
Y269988D01*
X389864Y272236D01*
X390508Y272173D01*
X390589Y272050D01*
X391116Y271699D01*
X391264Y271669D01*
X391389Y271134D01*
X391209Y270996D01*
X390648Y270265D01*
X390295Y269414D01*
X390175Y268500D01*
X390295Y267586D01*
X390648Y266735D01*
X391209Y266004D01*
X391940Y265443D01*
X392791Y265090D01*
X393705Y264970D01*
X394619Y265090D01*
X394854Y265188D01*
X398123Y261919D01*
X398620Y261587D01*
X399205Y261471D01*
X415867D01*
X415971Y261367D01*
Y257200D01*
X415928Y257171D01*
X415445Y256449D01*
X415276Y255598D01*
Y249299D01*
X415445Y248448D01*
X415928Y247727D01*
X416649Y247245D01*
X417500Y247075D01*
X418351Y247245D01*
X419072Y247727D01*
X419555Y248448D01*
X419724Y249299D01*
Y255598D01*
X419555Y256449D01*
X419072Y257171D01*
X419029Y257200D01*
Y262000D01*
X418913Y262585D01*
X418581Y263081D01*
X417581Y264081D01*
X417085Y264413D01*
X416500Y264529D01*
X409156D01*
X409044Y264858D01*
X409016Y265029D01*
X409557Y265735D01*
X409910Y266586D01*
X410030Y267500D01*
X409910Y268414D01*
X409812Y268649D01*
X410495Y269332D01*
X410861Y269087D01*
X411446Y268971D01*
X435000D01*
X435585Y269087D01*
X436081Y269419D01*
X436413Y269915D01*
X436529Y270500D01*
Y272344D01*
X436858Y272456D01*
X437029Y272484D01*
X437735Y271943D01*
X438586Y271590D01*
X439500Y271470D01*
X440414Y271590D01*
X441265Y271943D01*
X441971Y272484D01*
X442142Y272456D01*
X442471Y272344D01*
Y268969D01*
X440933D01*
Y263032D01*
X446732D01*
X447067Y263032D01*
X447567Y263032D01*
X449799D01*
Y266000D01*
X450299D01*
Y266500D01*
X453366D01*
Y268969D01*
X451829D01*
Y285308D01*
X456634Y290112D01*
X475089D01*
Y288083D01*
X478650D01*
Y291642D01*
Y295201D01*
X475089D01*
Y293171D01*
X456000D01*
X455415Y293055D01*
X454919Y292723D01*
X449218Y287022D01*
X448886Y286526D01*
X448770Y285941D01*
Y269322D01*
X448416Y268969D01*
X447232Y268969D01*
X446732Y268969D01*
X445529D01*
Y338367D01*
X451504Y344341D01*
X451968Y344149D01*
X453000Y344013D01*
X454032Y344149D01*
X454993Y344547D01*
X455819Y345181D01*
X456453Y346007D01*
X456851Y346968D01*
X456987Y348000D01*
X456959Y348208D01*
X457408Y348429D01*
X458919Y346919D01*
X459415Y346587D01*
X459831Y346504D01*
X459943Y346235D01*
X460504Y345504D01*
X461235Y344943D01*
X461471Y344845D01*
Y333633D01*
X458149Y330312D01*
X457914Y330410D01*
X457000Y330530D01*
X456086Y330410D01*
X455235Y330057D01*
X454504Y329496D01*
X453943Y328765D01*
X453590Y327914D01*
X453470Y327000D01*
X453590Y326086D01*
X453943Y325235D01*
X454504Y324504D01*
X455235Y323943D01*
X456086Y323590D01*
X457000Y323470D01*
X457914Y323590D01*
X458765Y323943D01*
X459496Y324504D01*
X460057Y325235D01*
X460410Y326086D01*
X460530Y327000D01*
X460410Y327914D01*
X460312Y328149D01*
X464081Y331919D01*
X464413Y332415D01*
X464529Y333000D01*
Y344845D01*
X464765Y344943D01*
X465496Y345504D01*
X466057Y346235D01*
X466410Y347086D01*
X466530Y348000D01*
X466410Y348914D01*
X466057Y349765D01*
X465496Y350496D01*
X464765Y351057D01*
X463914Y351410D01*
X463000Y351530D01*
X462086Y351410D01*
X461235Y351057D01*
X460504Y350496D01*
X460371Y350323D01*
X459872Y350291D01*
X455702Y354461D01*
X455675Y355070D01*
X455819Y355181D01*
X456453Y356007D01*
X456851Y356968D01*
X456987Y358000D01*
X456851Y359032D01*
X456453Y359993D01*
X455819Y360819D01*
X454993Y361453D01*
X454032Y361851D01*
X453000Y361987D01*
X451968Y361851D01*
X451007Y361453D01*
X450181Y360819D01*
X449547Y359993D01*
X449149Y359032D01*
X449013Y358000D01*
X449149Y356968D01*
X449547Y356007D01*
X449877Y355577D01*
X449631Y355077D01*
X441834D01*
X437716Y359194D01*
Y362968D01*
X431917D01*
X431583Y362968D01*
X431083Y362968D01*
X429880D01*
Y368531D01*
X431583D01*
X431917Y368531D01*
X432417Y368531D01*
X438216D01*
Y369971D01*
X448867D01*
X449341Y369496D01*
X449149Y369032D01*
X449013Y368000D01*
X449149Y366968D01*
X449547Y366007D01*
X450181Y365181D01*
X451007Y364547D01*
X451968Y364149D01*
X453000Y364013D01*
X454032Y364149D01*
X454993Y364547D01*
X455819Y365181D01*
X456453Y366007D01*
X456851Y366968D01*
X456987Y368000D01*
X456851Y369032D01*
X456453Y369993D01*
X455819Y370819D01*
X454993Y371453D01*
X454032Y371851D01*
X453000Y371987D01*
X451968Y371851D01*
X451504Y371659D01*
X450581Y372581D01*
X450085Y372913D01*
X449500Y373029D01*
X438216D01*
Y374468D01*
X432417D01*
X432083Y374468D01*
X431583Y374468D01*
X425783D01*
Y373029D01*
X393133D01*
X392953Y373210D01*
Y378953D01*
X387210D01*
X387081Y379081D01*
X386585Y379413D01*
X386000Y379529D01*
X370866D01*
Y380968D01*
X365067D01*
X364732Y380968D01*
X364232Y380968D01*
X358433D01*
Y375031D01*
X359971D01*
Y371204D01*
X360087Y370619D01*
X360419Y370123D01*
X360475Y370066D01*
Y366575D01*
X359429D01*
Y363187D01*
X358967Y362996D01*
X348581Y373381D01*
X348085Y373713D01*
X347500Y373829D01*
X314650D01*
X314065Y373713D01*
X313569Y373381D01*
X311269Y371081D01*
X310937Y370585D01*
X310821Y370000D01*
Y369969D01*
X309283D01*
Y367500D01*
X312350D01*
Y366500D01*
X309283D01*
Y364032D01*
X310821D01*
Y271885D01*
X309167Y270230D01*
X305469D01*
Y271768D01*
X305469D01*
Y271933D01*
X305469D01*
Y278067D01*
X304029D01*
Y376217D01*
X308633Y380821D01*
X329031D01*
Y379283D01*
X334968D01*
Y385161D01*
X335469Y385369D01*
X339688Y381149D01*
X339590Y380914D01*
X339470Y380000D01*
X339590Y379086D01*
X339943Y378235D01*
X340504Y377504D01*
X341235Y376943D01*
X342086Y376590D01*
X343000Y376470D01*
X343914Y376590D01*
X344765Y376943D01*
X345496Y377504D01*
X346057Y378235D01*
X346410Y379086D01*
X346530Y380000D01*
X346410Y380914D01*
X346057Y381765D01*
X345496Y382496D01*
X344765Y383057D01*
X343914Y383410D01*
X343000Y383530D01*
X342086Y383410D01*
X341851Y383312D01*
X336999Y388164D01*
X336503Y388496D01*
X335917Y388612D01*
X334968D01*
Y391717D01*
D02*
G37*
G36*
X456953Y381953D02*
X449047D01*
Y374047D01*
X456953D01*
Y381953D01*
D02*
G37*
G36*
X388500Y368921D02*
X387968Y368851D01*
X387007Y368453D01*
X386181Y367819D01*
X385547Y366993D01*
X385355Y366529D01*
X379200D01*
X378615Y366413D01*
X378119Y366081D01*
X377567Y365529D01*
X371075D01*
Y366575D01*
X369000D01*
Y364000D01*
Y361425D01*
X371075D01*
Y362471D01*
X378200D01*
X378785Y362587D01*
X379281Y362919D01*
X379834Y363471D01*
X385355D01*
X385547Y363007D01*
X386181Y362181D01*
X387007Y361547D01*
X387968Y361149D01*
X388500Y361079D01*
Y365000D01*
X389000D01*
D01*
X388500D01*
Y368921D01*
D02*
G37*
G36*
X389500D02*
Y365500D01*
X392921D01*
X392851Y366032D01*
X392453Y366993D01*
X391819Y367819D01*
X390993Y368453D01*
X390032Y368851D01*
X389500Y368921D01*
D02*
G37*
G36*
X368000Y366575D02*
X365925D01*
Y364500D01*
X368000D01*
Y366575D01*
D02*
G37*
G36*
X392921Y364500D02*
X389500D01*
Y361079D01*
X390032Y361149D01*
X390993Y361547D01*
X391819Y362181D01*
X392453Y363007D01*
X392851Y363968D01*
X392921Y364500D01*
D02*
G37*
G36*
X453000Y341987D02*
X451968Y341851D01*
X451007Y341453D01*
X450181Y340819D01*
X449547Y339993D01*
X449149Y339032D01*
X449013Y338000D01*
X449149Y336968D01*
X449547Y336007D01*
X450181Y335181D01*
X451007Y334547D01*
X451968Y334149D01*
X453000Y334013D01*
X454032Y334149D01*
X454993Y334547D01*
X455819Y335181D01*
X456453Y336007D01*
X456851Y336968D01*
X456987Y338000D01*
X456851Y339032D01*
X456453Y339993D01*
X455819Y340819D01*
X454993Y341453D01*
X454032Y341851D01*
X453000Y341987D01*
D02*
G37*
G36*
X405516Y324425D02*
X404895Y324301D01*
X404531Y324058D01*
X404168Y324301D01*
X403547Y324425D01*
X402927Y324301D01*
X402563Y324059D01*
X402199Y324301D01*
X401579Y324425D01*
X400958Y324301D01*
X400595Y324058D01*
X400231Y324301D01*
X399610Y324425D01*
X398990Y324301D01*
X398464Y323950D01*
X398112Y323424D01*
X397989Y322803D01*
Y316898D01*
X398112Y316277D01*
X398464Y315751D01*
X398990Y315399D01*
X399610Y315276D01*
X400231Y315399D01*
X400595Y315642D01*
X400958Y315399D01*
X401579Y315276D01*
X402199Y315399D01*
X402563Y315642D01*
X402927Y315399D01*
X403547Y315276D01*
X404168Y315399D01*
X404531Y315642D01*
X404895Y315399D01*
X405516Y315276D01*
X406136Y315399D01*
X406663Y315751D01*
X407014Y316277D01*
X407137Y316898D01*
Y322803D01*
X407014Y323424D01*
X406663Y323950D01*
X406136Y324301D01*
X405516Y324425D01*
D02*
G37*
G36*
X409953Y324325D02*
Y320350D01*
X411074D01*
Y322803D01*
X410951Y323424D01*
X410600Y323950D01*
X410073Y324301D01*
X409953Y324325D01*
D02*
G37*
G36*
X408953D02*
X408832Y324301D01*
X408306Y323950D01*
X407955Y323424D01*
X407831Y322803D01*
Y320350D01*
X408953D01*
Y324325D01*
D02*
G37*
G36*
X384000Y325530D02*
X383086Y325410D01*
X382235Y325057D01*
X381504Y324496D01*
X380943Y323765D01*
X380845Y323529D01*
X378086D01*
X377501Y323413D01*
X377004Y323081D01*
X376419Y322496D01*
X376087Y322000D01*
X375971Y321414D01*
Y293542D01*
X376087Y292957D01*
X376419Y292461D01*
X377004Y291875D01*
X377501Y291544D01*
X378086Y291427D01*
X384650D01*
X384800Y291457D01*
X387602D01*
X388223Y291581D01*
X388749Y291932D01*
X389101Y292458D01*
X389224Y293079D01*
X389101Y293699D01*
X388858Y294063D01*
X389101Y294427D01*
X389224Y295047D01*
X389101Y295668D01*
X388858Y296031D01*
X389101Y296395D01*
X389224Y297016D01*
X389101Y297636D01*
X388858Y298000D01*
X389101Y298364D01*
X389224Y298984D01*
X389101Y299605D01*
X388858Y299969D01*
X389101Y300332D01*
X389224Y300953D01*
X389101Y301573D01*
X388858Y301937D01*
X389101Y302301D01*
X389224Y302921D01*
X389101Y303542D01*
X388858Y303906D01*
X389101Y304269D01*
X389224Y304890D01*
X389101Y305510D01*
X388858Y305874D01*
X389101Y306238D01*
X389224Y306858D01*
X389101Y307479D01*
X388749Y308005D01*
X388223Y308356D01*
X387602Y308480D01*
X381697D01*
X381076Y308356D01*
X380550Y308005D01*
X380199Y307479D01*
X380075Y306858D01*
X380199Y306238D01*
X380441Y305874D01*
X380199Y305510D01*
X380075Y304890D01*
X380199Y304269D01*
X380442Y303906D01*
X380199Y303542D01*
X380075Y302921D01*
X380199Y302301D01*
X380441Y301937D01*
X380199Y301573D01*
X380075Y300953D01*
X380199Y300332D01*
X380442Y299969D01*
X380199Y299605D01*
X380075Y298984D01*
X380199Y298364D01*
X380441Y298000D01*
X380199Y297636D01*
X380075Y297016D01*
X380199Y296395D01*
X380442Y296031D01*
X380199Y295668D01*
X380075Y295047D01*
X380110Y294873D01*
X379793Y294486D01*
X379029D01*
Y320471D01*
X380845D01*
X380943Y320235D01*
X381504Y319504D01*
X382235Y318943D01*
X383086Y318590D01*
X384000Y318470D01*
X384914Y318590D01*
X385765Y318943D01*
X386496Y319504D01*
X387057Y320235D01*
X387410Y321086D01*
X387530Y322000D01*
X387410Y322914D01*
X387057Y323765D01*
X386496Y324496D01*
X385765Y325057D01*
X384914Y325410D01*
X384000Y325530D01*
D02*
G37*
G36*
X413390Y324425D02*
X412769Y324301D01*
X412243Y323950D01*
X411892Y323424D01*
X411768Y322803D01*
Y316898D01*
X411892Y316277D01*
X412243Y315751D01*
X412769Y315399D01*
X413390Y315276D01*
X414010Y315399D01*
X414537Y315751D01*
X414888Y316277D01*
X415012Y316898D01*
Y322803D01*
X414888Y323424D01*
X414537Y323950D01*
X414010Y324301D01*
X413390Y324425D01*
D02*
G37*
G36*
X391736D02*
X391116Y324301D01*
X390589Y323950D01*
X390238Y323424D01*
X390114Y322803D01*
Y316898D01*
X390238Y316277D01*
X390589Y315751D01*
X391116Y315399D01*
X391736Y315276D01*
X392357Y315399D01*
X392883Y315751D01*
X393234Y316277D01*
X393358Y316898D01*
Y322803D01*
X393234Y323424D01*
X392883Y323950D01*
X392357Y324301D01*
X391736Y324425D01*
D02*
G37*
G36*
X387602Y314386D02*
X381697D01*
X381076Y314262D01*
X380550Y313911D01*
X380199Y313384D01*
X380075Y312764D01*
X380199Y312143D01*
X380550Y311617D01*
X381076Y311265D01*
X381697Y311142D01*
X387602D01*
X388223Y311265D01*
X388749Y311617D01*
X389101Y312143D01*
X389224Y312764D01*
X389101Y313384D01*
X388749Y313911D01*
X388223Y314262D01*
X387602Y314386D01*
D02*
G37*
G36*
X361000Y311964D02*
Y309000D01*
X363964D01*
X363910Y309414D01*
X363557Y310265D01*
X362996Y310996D01*
X362265Y311557D01*
X361414Y311910D01*
X361000Y311964D01*
D02*
G37*
G36*
X360000D02*
X359586Y311910D01*
X358735Y311557D01*
X358004Y310996D01*
X357443Y310265D01*
X357090Y309414D01*
X357036Y309000D01*
X360000D01*
Y311964D01*
D02*
G37*
G36*
X431303Y314386D02*
X425398D01*
X424777Y314262D01*
X424251Y313911D01*
X423899Y313384D01*
X423776Y312764D01*
X423899Y312143D01*
X424142Y311779D01*
X423899Y311416D01*
X423776Y310795D01*
X423899Y310175D01*
X424142Y309811D01*
X423899Y309447D01*
X423776Y308827D01*
X423899Y308206D01*
X424142Y307842D01*
X423899Y307479D01*
X423776Y306858D01*
X423899Y306238D01*
X424142Y305874D01*
X423899Y305510D01*
X423776Y304890D01*
X423899Y304269D01*
X424142Y303906D01*
X423899Y303542D01*
X423776Y302921D01*
X423899Y302301D01*
X424251Y301775D01*
X424777Y301423D01*
X425398Y301300D01*
X431303D01*
X431924Y301423D01*
X432450Y301775D01*
X432801Y302301D01*
X432925Y302921D01*
X432801Y303542D01*
X432558Y303906D01*
X432801Y304269D01*
X432925Y304890D01*
X432801Y305510D01*
X432558Y305874D01*
X432801Y306238D01*
X432925Y306858D01*
X432801Y307479D01*
X432558Y307842D01*
X432801Y308206D01*
X432925Y308827D01*
X432801Y309447D01*
X432558Y309811D01*
X432801Y310175D01*
X432925Y310795D01*
X432801Y311416D01*
X432558Y311779D01*
X432801Y312143D01*
X432925Y312764D01*
X432801Y313384D01*
X432450Y313911D01*
X431924Y314262D01*
X431303Y314386D01*
D02*
G37*
G36*
Y300606D02*
X425398D01*
X424777Y300483D01*
X424251Y300131D01*
X423899Y299605D01*
X423776Y298984D01*
X423899Y298364D01*
X424251Y297837D01*
X424777Y297486D01*
X425398Y297362D01*
X431303D01*
X431924Y297486D01*
X432450Y297837D01*
X432801Y298364D01*
X432925Y298984D01*
X432801Y299605D01*
X432450Y300131D01*
X431924Y300483D01*
X431303Y300606D01*
D02*
G37*
G36*
X363964Y308000D02*
X357036D01*
X357090Y307586D01*
X357443Y306735D01*
X358004Y306004D01*
X358735Y305443D01*
X358971Y305345D01*
Y296155D01*
X358735Y296057D01*
X358004Y295496D01*
X357443Y294765D01*
X357090Y293914D01*
X357036Y293500D01*
X363964D01*
X363910Y293914D01*
X363557Y294765D01*
X362996Y295496D01*
X362265Y296057D01*
X362029Y296155D01*
Y305345D01*
X362265Y305443D01*
X362996Y306004D01*
X363557Y306735D01*
X363910Y307586D01*
X363964Y308000D01*
D02*
G37*
G36*
X483211Y295201D02*
X479650D01*
Y292142D01*
X483211D01*
Y295201D01*
D02*
G37*
G36*
X363964Y292500D02*
X361000D01*
Y289536D01*
X361414Y289590D01*
X362265Y289943D01*
X362996Y290504D01*
X363557Y291235D01*
X363910Y292086D01*
X363964Y292500D01*
D02*
G37*
G36*
X360000D02*
X357036D01*
X357090Y292086D01*
X357443Y291235D01*
X358004Y290504D01*
X358735Y289943D01*
X359586Y289590D01*
X360000Y289536D01*
Y292500D01*
D02*
G37*
G36*
X483211Y291142D02*
X479650D01*
Y288083D01*
X483211D01*
Y291142D01*
D02*
G37*
G36*
X387602Y290763D02*
X381697D01*
X381076Y290640D01*
X380550Y290288D01*
X380199Y289762D01*
X380075Y289142D01*
X380199Y288521D01*
X380442Y288158D01*
X380199Y287794D01*
X380075Y287173D01*
X380199Y286553D01*
X380441Y286189D01*
X380199Y285825D01*
X380075Y285205D01*
X380199Y284584D01*
X380442Y284221D01*
X380199Y283857D01*
X380075Y283236D01*
X380199Y282616D01*
X380550Y282089D01*
X381076Y281738D01*
X381697Y281614D01*
X387602D01*
X388223Y281738D01*
X388749Y282089D01*
X389101Y282616D01*
X389224Y283236D01*
X389101Y283857D01*
X388858Y284221D01*
X389101Y284584D01*
X389224Y285205D01*
X389101Y285825D01*
X388858Y286189D01*
X389101Y286553D01*
X389224Y287173D01*
X389101Y287794D01*
X388858Y288158D01*
X389101Y288521D01*
X389224Y289142D01*
X389101Y289762D01*
X388749Y290288D01*
X388223Y290640D01*
X387602Y290763D01*
D02*
G37*
G36*
X453366Y265500D02*
X450799D01*
Y263032D01*
X453366D01*
Y265500D01*
D02*
G37*
G36*
X266000Y249750D02*
X261750D01*
Y246500D01*
X266000D01*
Y249750D01*
D02*
G37*
G36*
X359500Y239277D02*
X358134Y239098D01*
X356861Y238570D01*
X355768Y237732D01*
X354930Y236639D01*
X354750Y236205D01*
X354250D01*
X354070Y236639D01*
X353232Y237732D01*
X352139Y238570D01*
X350866Y239098D01*
X350000Y239212D01*
Y234000D01*
Y228788D01*
X350866Y228902D01*
X352139Y229430D01*
X353232Y230268D01*
X354070Y231361D01*
X354250Y231795D01*
X354750D01*
X354930Y231361D01*
X355768Y230268D01*
X356861Y229430D01*
X358134Y228902D01*
X359500Y228723D01*
X360866Y228902D01*
X362139Y229430D01*
X363232Y230268D01*
X364070Y231361D01*
X364598Y232634D01*
X364777Y234000D01*
X364598Y235366D01*
X364070Y236639D01*
X363232Y237732D01*
X362139Y238570D01*
X360866Y239098D01*
X359500Y239277D01*
D02*
G37*
G36*
X339500D02*
X338134Y239098D01*
X336861Y238570D01*
X335768Y237732D01*
X334930Y236639D01*
X334402Y235366D01*
X334223Y234000D01*
X334402Y232634D01*
X334930Y231361D01*
X335768Y230268D01*
X336861Y229430D01*
X338134Y228902D01*
X339500Y228723D01*
X340866Y228902D01*
X342139Y229430D01*
X343232Y230268D01*
X344070Y231361D01*
X344250Y231795D01*
X344750D01*
X344930Y231361D01*
X345768Y230268D01*
X346861Y229430D01*
X348134Y228902D01*
X349000Y228788D01*
Y234000D01*
Y239212D01*
X348134Y239098D01*
X346861Y238570D01*
X345768Y237732D01*
X344930Y236639D01*
X344750Y236205D01*
X344250D01*
X344070Y236639D01*
X343232Y237732D01*
X342139Y238570D01*
X340866Y239098D01*
X339500Y239277D01*
D02*
G37*
G36*
X410300Y241729D02*
X402000D01*
X401415Y241613D01*
X400919Y241281D01*
X398719Y239081D01*
X398387Y238585D01*
X398271Y238000D01*
Y219800D01*
X398387Y219215D01*
X398719Y218719D01*
X400345Y217092D01*
Y211425D01*
X399983Y211276D01*
X399200Y210675D01*
X398598Y209891D01*
X398220Y208979D01*
X397750Y209088D01*
Y211750D01*
X390250D01*
Y202250D01*
X392471D01*
Y202000D01*
X392587Y201415D01*
X392919Y200919D01*
X394919Y198919D01*
X395415Y198587D01*
X396000Y198471D01*
X426000D01*
X426585Y198587D01*
X427081Y198919D01*
X429081Y200919D01*
X429413Y201415D01*
X429529Y202000D01*
Y202250D01*
X431750D01*
Y204912D01*
X432221Y205021D01*
X432598Y204109D01*
X433200Y203326D01*
X433983Y202724D01*
X434895Y202346D01*
X435874Y202218D01*
X436853Y202346D01*
X437765Y202724D01*
X438549Y203326D01*
X439150Y204109D01*
X439528Y205021D01*
X439656Y206000D01*
Y208000D01*
X439528Y208979D01*
X439150Y209891D01*
X438549Y210675D01*
X437765Y211276D01*
X436853Y211653D01*
X435874Y211782D01*
X434895Y211653D01*
X433983Y211276D01*
X433200Y210675D01*
X432598Y209891D01*
X432221Y208979D01*
X431750Y209088D01*
Y211750D01*
X429480D01*
X429413Y212085D01*
X429081Y212581D01*
X428585Y212913D01*
X428000Y213029D01*
X410534D01*
X408532Y215032D01*
X408739Y215531D01*
X409768D01*
Y215531D01*
X409933D01*
Y215531D01*
X416067D01*
Y221468D01*
X414529D01*
Y226000D01*
X414413Y226585D01*
X414081Y227081D01*
X414029Y227133D01*
Y228800D01*
X414073Y228829D01*
X414555Y229551D01*
X414724Y230402D01*
Y236701D01*
X414555Y237552D01*
X414073Y238273D01*
X413960Y238348D01*
X413913Y238585D01*
X413581Y239081D01*
X411381Y241281D01*
X410885Y241613D01*
X410300Y241729D01*
D02*
G37*
%LPD*%
G36*
X356925Y360712D02*
X356734Y360250D01*
X343249D01*
X342866Y360531D01*
Y366469D01*
X341235D01*
X341212Y366585D01*
X340881Y367081D01*
X339881Y368081D01*
X339385Y368413D01*
X338799Y368529D01*
X321716D01*
Y369969D01*
X315583D01*
Y369969D01*
X315417D01*
X315272Y370066D01*
X315184Y370671D01*
X315284Y370771D01*
X346866D01*
X356925Y360712D01*
D02*
G37*
G36*
X282119Y361919D02*
X282615Y361587D01*
X283200Y361471D01*
X284014D01*
Y359760D01*
X286146D01*
Y359260D01*
X286646D01*
Y357039D01*
X288278D01*
Y357730D01*
X297366D01*
X298671Y356426D01*
Y330720D01*
X295368D01*
Y330029D01*
X283000D01*
X282415Y329913D01*
X281919Y329581D01*
X281740Y329403D01*
X273250D01*
Y331624D01*
X264729D01*
Y354167D01*
X267927Y357364D01*
X268109Y357224D01*
X269021Y356846D01*
X270000Y356718D01*
X272000D01*
X272979Y356846D01*
X273891Y357224D01*
X274675Y357825D01*
X275276Y358609D01*
X275654Y359521D01*
X275782Y360500D01*
X275654Y361479D01*
X275276Y362391D01*
X274675Y363175D01*
X273891Y363776D01*
X272979Y364154D01*
X273088Y364624D01*
X275750D01*
Y366845D01*
X277192D01*
X282119Y361919D01*
D02*
G37*
G36*
X405971Y341866D02*
Y341460D01*
X401008Y336497D01*
X400504Y336701D01*
X400410Y337414D01*
X400057Y338265D01*
X399496Y338996D01*
X398765Y339557D01*
X397914Y339910D01*
X397000Y340030D01*
X396086Y339910D01*
X395851Y339812D01*
X381529Y354134D01*
Y356500D01*
X381491Y356691D01*
X381898Y357191D01*
X390646D01*
X405971Y341866D01*
D02*
G37*
G36*
X286014Y325260D02*
X288146D01*
Y324260D01*
X286014D01*
Y322539D01*
X286616D01*
Y316905D01*
X286733Y316319D01*
X287064Y315823D01*
X288821Y314067D01*
Y309968D01*
X287283D01*
Y307500D01*
X290350D01*
Y306500D01*
X287283D01*
Y304031D01*
X288821D01*
Y293334D01*
X287178Y291691D01*
X286847Y291195D01*
X286730Y290609D01*
Y279132D01*
X286049D01*
Y280980D01*
X285933Y281566D01*
X285601Y282062D01*
X281081Y286581D01*
X280585Y286913D01*
X280000Y287029D01*
X271250D01*
Y289250D01*
X262729D01*
Y318670D01*
X263229Y318845D01*
X263615Y318587D01*
X264063Y318498D01*
X264224Y318109D01*
X264826Y317325D01*
X265609Y316724D01*
X266521Y316347D01*
X267500Y316218D01*
X269500D01*
X270479Y316347D01*
X271391Y316724D01*
X272175Y317325D01*
X272776Y318109D01*
X273153Y319021D01*
X273282Y320000D01*
X273153Y320979D01*
X272776Y321891D01*
X272175Y322674D01*
X271391Y323276D01*
X270479Y323654D01*
X270588Y324124D01*
X273250D01*
Y326345D01*
X282374D01*
X282959Y326461D01*
X283455Y326793D01*
X283633Y326971D01*
X286014D01*
Y325260D01*
D02*
G37*
G36*
X295368Y318799D02*
X295971D01*
Y314984D01*
X295568Y314581D01*
X295237Y314085D01*
X295120Y313500D01*
Y309968D01*
X293583D01*
Y309968D01*
X293417D01*
Y309968D01*
X291880D01*
Y314700D01*
X291763Y315285D01*
X291432Y315781D01*
X289675Y317538D01*
Y322539D01*
X290278D01*
Y323230D01*
X295368D01*
Y318799D01*
D02*
G37*
G36*
X300971Y323914D02*
Y278067D01*
X299532D01*
Y276529D01*
X298833D01*
X297281Y278081D01*
X296785Y278413D01*
X296200Y278529D01*
X294220D01*
Y279132D01*
X289789D01*
Y289976D01*
X291432Y291619D01*
X291763Y292115D01*
X291880Y292700D01*
Y304031D01*
X293417D01*
Y304031D01*
X293583D01*
Y304031D01*
X295120D01*
Y291155D01*
X294884Y291057D01*
X294153Y290496D01*
X293592Y289765D01*
X293240Y288914D01*
X293119Y288000D01*
X293240Y287086D01*
X293592Y286235D01*
X294153Y285504D01*
X294884Y284943D01*
X295736Y284590D01*
X296650Y284470D01*
X297563Y284590D01*
X298415Y284943D01*
X299146Y285504D01*
X299707Y286235D01*
X300060Y287086D01*
X300180Y288000D01*
X300060Y288914D01*
X299707Y289765D01*
X299146Y290496D01*
X298415Y291057D01*
X298179Y291155D01*
Y304031D01*
X299716D01*
Y309968D01*
X298179D01*
Y312866D01*
X298581Y313269D01*
X298913Y313765D01*
X299029Y314350D01*
Y318799D01*
X299632D01*
Y323240D01*
X299966Y323602D01*
X300081Y323678D01*
X300509Y324106D01*
X300971Y323914D01*
D02*
G37*
G36*
X409140Y295022D02*
X408943Y294765D01*
X408590Y293914D01*
X408470Y293000D01*
X408590Y292086D01*
X408943Y291235D01*
X409504Y290504D01*
X410235Y289943D01*
X411086Y289590D01*
X412000Y289470D01*
X412914Y289590D01*
X413765Y289943D01*
X414496Y290504D01*
X415057Y291235D01*
X415155Y291471D01*
X418366D01*
X419919Y289919D01*
X420415Y289587D01*
X421000Y289471D01*
X423506D01*
X423776Y289142D01*
X423899Y288521D01*
X424251Y287995D01*
X424777Y287644D01*
X425398Y287520D01*
X431303D01*
X431924Y287644D01*
X432450Y287995D01*
X432801Y288521D01*
X432880Y288916D01*
X433319Y289235D01*
X433412Y289257D01*
X433471Y289236D01*
Y272029D01*
X421029D01*
X420762Y272529D01*
X420793Y272576D01*
X420917Y273197D01*
Y279102D01*
X420793Y279723D01*
X420442Y280249D01*
X419916Y280601D01*
X419295Y280724D01*
X418675Y280601D01*
X418311Y280358D01*
X417947Y280601D01*
X417327Y280724D01*
X416706Y280601D01*
X416342Y280358D01*
X415979Y280601D01*
X415358Y280724D01*
X414738Y280601D01*
X414374Y280358D01*
X414010Y280601D01*
X413390Y280724D01*
X412769Y280601D01*
X412243Y280249D01*
X411892Y279723D01*
X411768Y279102D01*
Y273197D01*
X411769Y273190D01*
X411311Y272931D01*
X411066Y273154D01*
X411074Y273197D01*
Y279102D01*
X410951Y279723D01*
X410600Y280249D01*
X410073Y280601D01*
X409453Y280724D01*
X409400Y280714D01*
X409014Y281031D01*
Y286984D01*
X408897Y287569D01*
X408566Y288066D01*
X408070Y288397D01*
X407484Y288514D01*
X405579D01*
X405500Y288529D01*
X401495D01*
X401248Y289029D01*
X401490Y289345D01*
X401843Y290196D01*
X401897Y290610D01*
X398433D01*
Y291610D01*
X401897D01*
X401843Y292024D01*
X401490Y292875D01*
X400929Y293606D01*
X400211Y294157D01*
X400193Y294201D01*
X400119Y294701D01*
X400369Y294971D01*
X401157D01*
X401742Y295087D01*
X402238Y295419D01*
X402290Y295471D01*
X408919D01*
X409140Y295022D01*
D02*
G37*
G36*
X404895Y271699D02*
X405516Y271575D01*
X406136Y271699D01*
X406500Y271941D01*
X406864Y271699D01*
X407484Y271575D01*
X407530Y271317D01*
X407070Y270955D01*
X406500Y271030D01*
X405586Y270910D01*
X404735Y270557D01*
X404004Y269996D01*
X403443Y269265D01*
X403090Y268414D01*
X402970Y267500D01*
X403090Y266586D01*
X403443Y265735D01*
X403984Y265029D01*
X403956Y264858D01*
X403844Y264529D01*
X399838D01*
X397017Y267351D01*
X397115Y267586D01*
X397235Y268500D01*
X397115Y269414D01*
X396762Y270265D01*
X396201Y270996D01*
X396021Y271134D01*
X396146Y271669D01*
X396294Y271699D01*
X396657Y271942D01*
X397021Y271699D01*
X397642Y271575D01*
X398262Y271699D01*
X398626Y271941D01*
X398990Y271699D01*
X399610Y271575D01*
X400231Y271699D01*
X400595Y271942D01*
X400958Y271699D01*
X401579Y271575D01*
X402199Y271699D01*
X402563Y271941D01*
X402927Y271699D01*
X403547Y271575D01*
X404168Y271699D01*
X404531Y271942D01*
X404895Y271699D01*
D02*
G37*
G36*
X297119Y273919D02*
X297615Y273587D01*
X298200Y273471D01*
X299532D01*
Y271933D01*
X299532D01*
Y271768D01*
X299532D01*
Y270230D01*
X295855D01*
X295270Y270114D01*
X294774Y269782D01*
X294166Y269175D01*
X290480D01*
Y269777D01*
X289789D01*
Y274868D01*
X294220D01*
Y275471D01*
X295567D01*
X297119Y273919D01*
D02*
G37*
%LPC*%
G36*
X285646Y358760D02*
X284014D01*
Y357039D01*
X285646D01*
Y358760D01*
D02*
G37*
G36*
X431303Y284858D02*
X425398D01*
X424777Y284735D01*
X424251Y284383D01*
X423899Y283857D01*
X423776Y283236D01*
X423899Y282616D01*
X424251Y282089D01*
X424777Y281738D01*
X425398Y281614D01*
X431303D01*
X431924Y281738D01*
X432450Y282089D01*
X432801Y282616D01*
X432925Y283236D01*
X432801Y283857D01*
X432450Y284383D01*
X431924Y284735D01*
X431303Y284858D01*
D02*
G37*
%LPD*%
G36*
X405859Y238171D02*
X405445Y237552D01*
X405276Y236701D01*
Y230402D01*
X405445Y229551D01*
X405928Y228829D01*
X405971Y228800D01*
Y227033D01*
X405619Y226681D01*
X405288Y226185D01*
X405171Y225600D01*
Y221468D01*
X403634D01*
Y218692D01*
X403134Y218540D01*
X402955Y218807D01*
X401329Y220433D01*
Y228005D01*
X401829Y228311D01*
X402500Y228178D01*
X403351Y228347D01*
X404073Y228829D01*
X404555Y229551D01*
X404724Y230402D01*
Y236701D01*
X404555Y237552D01*
X404141Y238171D01*
X404309Y238671D01*
X405691D01*
X405859Y238171D01*
D02*
G37*
G36*
X410582Y237755D02*
X410445Y237552D01*
X410276Y236701D01*
Y230402D01*
X410445Y229551D01*
X410927Y228829D01*
X410971Y228800D01*
Y226500D01*
X411087Y225915D01*
X411419Y225419D01*
X411471Y225366D01*
Y221468D01*
X409933D01*
Y221468D01*
X409768D01*
Y221468D01*
X408230D01*
Y224967D01*
X408581Y225318D01*
X408913Y225814D01*
X409029Y226399D01*
Y228800D01*
X409072Y228829D01*
X409555Y229551D01*
X409724Y230402D01*
Y236701D01*
X409555Y237552D01*
X409254Y238001D01*
X409462Y238511D01*
X409780Y238557D01*
X410582Y237755D01*
D02*
G37*
G36*
X405171Y214700D02*
X405288Y214115D01*
X405619Y213619D01*
X408819Y210419D01*
X409315Y210087D01*
X409901Y209971D01*
X424250D01*
Y202250D01*
X425158D01*
X425402Y201750D01*
X425231Y201529D01*
X396769D01*
X396598Y201750D01*
X396842Y202250D01*
X397750D01*
Y204912D01*
X398220Y205021D01*
X398598Y204109D01*
X399200Y203326D01*
X399983Y202724D01*
X400895Y202346D01*
X401874Y202218D01*
X402853Y202346D01*
X403765Y202724D01*
X404549Y203326D01*
X405150Y204109D01*
X405527Y205021D01*
X405656Y206000D01*
Y208000D01*
X405527Y208979D01*
X405150Y209891D01*
X404549Y210675D01*
X403765Y211276D01*
X403403Y211425D01*
Y215127D01*
X403634Y215531D01*
X405171D01*
Y214700D01*
D02*
G37*
D15*
X380000Y353500D02*
Y356500D01*
Y353500D02*
X397000Y336500D01*
X428350Y291232D02*
X434414D01*
X424532Y291232D02*
X428350D01*
X378086Y292957D02*
X384650D01*
X332000Y388551D02*
Y388650D01*
X333469Y387083D02*
X335917D01*
X332000Y388551D02*
X333469Y387083D01*
X335917D02*
X343000Y380000D01*
X362500Y352500D02*
X363000D01*
X385000Y330500D01*
X384750D02*
X385000D01*
X463000Y348000D02*
Y348125D01*
Y333000D02*
Y348000D01*
X457000Y327000D02*
X463000Y333000D01*
X460000Y348000D02*
X463000D01*
X454453Y353547D02*
X460000Y348000D01*
X409453Y272493D02*
Y276150D01*
Y270453D02*
Y272493D01*
X406500Y267500D02*
X409453Y270453D01*
X386086Y270621D02*
X391614Y276150D01*
X439250Y275250D02*
X439500Y275000D01*
X439250Y275250D02*
Y287250D01*
X439000Y287500D02*
X439250Y287250D01*
X435000Y290647D02*
Y299500D01*
Y270500D02*
Y290647D01*
Y299500D02*
X438000Y302500D01*
X434414Y291232D02*
X435000Y290647D01*
X411446Y270500D02*
X435000D01*
X428350Y371000D02*
X428850Y371500D01*
X428350Y360000D02*
Y371000D01*
X393705Y268500D02*
X399205Y263000D01*
X391086Y259000D02*
X401914D01*
X402500Y258414D01*
Y252449D02*
Y258414D01*
X386086Y264000D02*
X391086Y259000D01*
X399205Y263000D02*
X416500D01*
X417500Y262000D01*
Y252449D02*
Y262000D01*
X296650Y313500D02*
X297500Y314350D01*
X296650Y307000D02*
Y313500D01*
X297500Y314350D02*
Y321020D01*
X450299Y266000D02*
Y285941D01*
X456000Y291642D01*
X347500Y372300D02*
X358875Y360925D01*
X314650Y372300D02*
X347500D01*
X358875Y360925D02*
X365425D01*
X428350Y291232D02*
Y291232D01*
X421000Y291000D02*
X424299D01*
X424532Y291232D01*
X419000Y293000D02*
X421000Y291000D01*
X412000Y293000D02*
X419000D01*
X399500Y310500D02*
X408500Y301500D01*
X393000Y310500D02*
X399500D01*
X401157Y296500D02*
X401657Y297000D01*
X399586Y296500D02*
X401157D01*
X398433Y295347D02*
X399586Y296500D01*
X401657Y297000D02*
X411500D01*
X415000Y300500D01*
Y306414D01*
X405516Y286984D02*
X407484D01*
X405500Y287000D02*
X405516Y286984D01*
X398433Y291110D02*
Y295347D01*
X414414Y307000D02*
X415000Y306414D01*
X410039Y307000D02*
X414414D01*
X409453Y307586D02*
X410039Y307000D01*
X394500Y287000D02*
X405500D01*
X392500Y289000D02*
X394500Y287000D01*
X392500Y289000D02*
Y299000D01*
X394000Y300500D01*
X399500D01*
X409453Y307586D02*
Y319850D01*
X407484Y276150D02*
Y286984D01*
X377500Y293542D02*
X378086Y292957D01*
X377500Y293542D02*
Y321414D01*
X378086Y322000D01*
X384000D01*
X360500Y293000D02*
Y308500D01*
X409453Y272493D02*
X411446Y270500D01*
X339799Y363500D02*
Y366000D01*
X338799Y367000D02*
X339799Y366000D01*
X318650Y367000D02*
X338799D01*
X308000Y382350D02*
X332000D01*
X302500Y376850D02*
X308000Y382350D01*
X302500Y275000D02*
Y376850D01*
X292000Y277000D02*
X296200D01*
X298200Y275000D01*
X302500D01*
X296650Y288000D02*
Y307000D01*
X284520Y277000D02*
Y280980D01*
X280000Y285500D02*
X284520Y280980D01*
X266500Y285500D02*
X280000D01*
X392500Y371500D02*
X428850D01*
X389000Y375000D02*
X392500Y371500D01*
X367799Y378000D02*
X386000D01*
X389000Y375000D01*
X435150Y371500D02*
X449500D01*
X453000Y368000D01*
X413000Y218500D02*
Y226000D01*
X412500Y226500D02*
X413000Y226000D01*
X412500Y226500D02*
Y233551D01*
Y238000D01*
X410300Y240200D02*
X412500Y238000D01*
X402000Y240200D02*
X410300D01*
X399800Y238000D02*
X402000Y240200D01*
X399800Y219800D02*
Y238000D01*
Y219800D02*
X401874Y217726D01*
Y207000D02*
Y217726D01*
X407500Y226399D02*
Y233551D01*
X406701Y225600D02*
X407500Y226399D01*
X406701Y218500D02*
Y225600D01*
X428000Y207000D02*
Y211500D01*
X409901D02*
X428000D01*
X406701Y214700D02*
X409901Y211500D01*
X406701Y214700D02*
Y218500D01*
X361500Y371204D02*
Y378000D01*
Y371204D02*
X362004Y370700D01*
Y364000D02*
Y370700D01*
X379200Y365000D02*
X389000D01*
X378200Y364000D02*
X379200Y365000D01*
X368500Y364000D02*
X378200D01*
X365425Y360925D02*
X368500Y364000D01*
X312350Y370000D02*
X314650Y372300D01*
X312350Y367000D02*
Y370000D01*
X286146Y359260D02*
X298000D01*
X300200Y357060D01*
Y325960D02*
Y357060D01*
X299000Y324760D02*
X300200Y325960D01*
X288146Y324760D02*
X299000D01*
X312350Y271251D02*
Y367000D01*
X309800Y268701D02*
X312350Y271251D01*
X302500Y268701D02*
X309800D01*
X288146Y316905D02*
Y324760D01*
Y316905D02*
X290350Y314700D01*
Y307000D02*
Y314700D01*
X295855Y268701D02*
X302500D01*
X294800Y267646D02*
X295855Y268701D01*
X288260Y267646D02*
X294800D01*
X290350Y292700D02*
Y307000D01*
X288260Y290609D02*
X290350Y292700D01*
X288260Y267646D02*
Y290609D01*
Y250260D02*
Y267646D01*
X284000Y246000D02*
X288260Y250260D01*
X266500Y246000D02*
X284000D01*
X434748Y360000D02*
X441201Y353547D01*
X454453D01*
X395673Y319850D02*
Y329000D01*
X407500Y340827D01*
Y342500D01*
X391280Y358720D02*
X407500Y342500D01*
X338378Y358720D02*
X391280D01*
X333598Y363500D02*
X338378Y358720D01*
X333500Y363500D02*
X333598D01*
X421264Y319850D02*
Y320173D01*
X444000Y339000D02*
X453000Y348000D01*
X261200Y279000D02*
Y352800D01*
Y279000D02*
X262574Y277626D01*
X266500D01*
X268900Y360500D02*
X271000D01*
X263200Y354800D02*
X268900Y360500D01*
X263200Y321000D02*
Y354800D01*
Y321000D02*
X264200Y320000D01*
X268500D01*
X456000Y291642D02*
X479150D01*
X428000Y202000D02*
Y207000D01*
X426000Y200000D02*
X428000Y202000D01*
X396000Y200000D02*
X426000D01*
X394000Y202000D02*
X396000Y200000D01*
X394000Y202000D02*
Y207000D01*
X345000Y356500D02*
X380000D01*
X333500Y345000D02*
X345000Y356500D01*
X283000Y328500D02*
X297500D01*
X282374Y327874D02*
X283000Y328500D01*
X268500Y327874D02*
X282374D01*
X283200Y363000D02*
X295500D01*
X277826Y368374D02*
X283200Y363000D01*
X271000Y368374D02*
X277826D01*
X391614Y276150D02*
X391736D01*
X386086Y264000D02*
Y270621D01*
X318650Y355520D02*
Y367000D01*
X333500Y351000D02*
X339000Y356500D01*
X434650Y360000D02*
X434748D01*
X339000Y356500D02*
X345000D01*
X444000Y266000D02*
Y339000D01*
Y342909D01*
Y342943D01*
X421264Y320173D02*
X444000Y342909D01*
X261200Y352800D02*
X263200Y354800D01*
D19*
X292000Y277000D02*
D03*
X284520D02*
D03*
X288260Y267646D02*
D03*
D20*
X296650Y307000D02*
D03*
X290350D02*
D03*
X413000Y218500D02*
D03*
X406701D02*
D03*
X444000Y266000D02*
D03*
X450299D02*
D03*
X339799Y363500D02*
D03*
X333500D02*
D03*
X428350Y360000D02*
D03*
X434650D02*
D03*
X428850Y371500D02*
D03*
X435150D02*
D03*
X318650Y367000D02*
D03*
X312350D02*
D03*
X361500Y378000D02*
D03*
X367799D02*
D03*
D21*
X402500Y233551D02*
D03*
X407500D02*
D03*
X412500D02*
D03*
X402500Y252449D02*
D03*
X417500D02*
D03*
D22*
X479150Y291642D02*
D03*
D23*
X302500Y275000D02*
D03*
Y268701D02*
D03*
X332000Y388650D02*
D03*
Y382350D02*
D03*
D24*
X362004Y364000D02*
D03*
X368500D02*
D03*
D25*
X288146Y324760D02*
D03*
X297500Y328500D02*
D03*
Y321020D02*
D03*
X286146Y359260D02*
D03*
X295500Y363000D02*
D03*
D43*
X384650Y312764D02*
D03*
Y306858D02*
D03*
Y304890D02*
D03*
Y302921D02*
D03*
Y300953D02*
D03*
Y298984D02*
D03*
Y297016D02*
D03*
Y295047D02*
D03*
Y293079D02*
D03*
Y289142D02*
D03*
Y287173D02*
D03*
Y285205D02*
D03*
Y283236D02*
D03*
X428350D02*
D03*
Y289142D02*
D03*
Y291110D02*
D03*
Y298984D02*
D03*
Y302921D02*
D03*
Y304890D02*
D03*
Y306858D02*
D03*
Y308827D02*
D03*
Y310795D02*
D03*
Y312764D02*
D03*
D44*
X391736Y276150D02*
D03*
X395673D02*
D03*
X397642D02*
D03*
X399610D02*
D03*
X401579D02*
D03*
X403547D02*
D03*
X405516D02*
D03*
X407484D02*
D03*
X409453D02*
D03*
X413390D02*
D03*
X415358D02*
D03*
X417327D02*
D03*
X419295D02*
D03*
X421264Y319850D02*
D03*
X413390D02*
D03*
X409453D02*
D03*
X405516D02*
D03*
X403547D02*
D03*
X401579D02*
D03*
X399610D02*
D03*
X395673D02*
D03*
X391736D02*
D03*
X393705Y276150D02*
D03*
D45*
X401874Y207000D02*
D03*
X435874D02*
D03*
D46*
X394000D02*
D03*
X428000D02*
D03*
D47*
X453000Y378000D02*
D03*
X389000Y375000D02*
D03*
D48*
X453000Y368000D02*
D03*
Y358000D02*
D03*
Y348000D02*
D03*
Y338000D02*
D03*
X389000Y365000D02*
D03*
D49*
X266500Y238126D02*
D03*
Y230252D02*
D03*
Y277626D02*
D03*
X268500Y320000D02*
D03*
X271000Y360500D02*
D03*
D50*
X266500Y246000D02*
D03*
Y285500D02*
D03*
X268500Y327874D02*
D03*
X271000Y368374D02*
D03*
D51*
X359500Y234000D02*
D03*
X349500D02*
D03*
X339500D02*
D03*
D52*
X397000Y336500D02*
D03*
X343000Y380000D02*
D03*
X385000Y330500D02*
D03*
X463000Y348000D02*
D03*
X406500Y267500D02*
D03*
X457000Y327000D02*
D03*
X439500Y275000D02*
D03*
X439000Y287500D02*
D03*
X438000Y302500D02*
D03*
X393705Y268500D02*
D03*
X412000Y293000D02*
D03*
X408500Y301500D02*
D03*
X398433Y291110D02*
D03*
X399500Y300500D02*
D03*
X393000Y310500D02*
D03*
X384000Y322000D02*
D03*
X360500Y293000D02*
D03*
Y308500D02*
D03*
X296650Y288000D02*
D03*
X362500Y352500D02*
D03*
X333500Y345000D02*
D03*
X318650Y355520D02*
D03*
X333500Y351000D02*
D03*
M02*
