G04*
G04 #@! TF.GenerationSoftware,Altium Limited,Altium Designer,19.1.5 (86)*
G04*
G04 Layer_Color=32896*
%FSLAX25Y25*%
%MOIN*%
G70*
G01*
G75*
%ADD15C,0.01000*%
%ADD59C,0.00394*%
D15*
X453657Y310343D02*
X473343D01*
X453657Y290657D02*
Y310343D01*
Y290657D02*
X473343D01*
Y310343D01*
X300327Y205043D02*
Y225398D01*
X288673D02*
X300327D01*
X288673Y205043D02*
Y225398D01*
Y205043D02*
X300327D01*
X290051Y215555D02*
X298870D01*
X317827Y204543D02*
Y224898D01*
X306173D02*
X317827D01*
X306173Y204543D02*
Y224898D01*
Y204543D02*
X317827D01*
X307551Y215055D02*
X316370D01*
X478501Y321498D02*
X479501Y322498D01*
X481500D01*
X482500Y321498D01*
Y320499D01*
X481500Y319499D01*
X479501D01*
X478501Y318499D01*
Y317500D01*
X479501Y316500D01*
X481500D01*
X482500Y317500D01*
X476502Y316500D02*
X474503D01*
X475502D01*
Y322498D01*
X476502Y321498D01*
X414000Y349500D02*
Y343502D01*
X416999D01*
X417999Y344502D01*
Y346501D01*
X416999Y347501D01*
X414000D01*
X415999D02*
X417999Y349500D01*
X422997D02*
Y343502D01*
X419998Y346501D01*
X423997D01*
X332500Y279500D02*
Y285498D01*
X329501D01*
X328501Y284498D01*
Y282499D01*
X329501Y281499D01*
X332500D01*
X330501D02*
X328501Y279500D01*
X326502D02*
X324503D01*
X325502D01*
Y285498D01*
X326502Y284498D01*
X299400Y262998D02*
Y257000D01*
X295401D01*
X293402D02*
X291403D01*
X292402D01*
Y262998D01*
X293402Y261998D01*
X352502Y339501D02*
X351502Y340501D01*
Y342500D01*
X352502Y343500D01*
X356500D01*
X357500Y342500D01*
Y340501D01*
X356500Y339501D01*
X357500Y337502D02*
Y335503D01*
Y336502D01*
X351502D01*
X352502Y337502D01*
X351502Y332504D02*
Y328505D01*
X352502D01*
X356500Y332504D01*
X357500D01*
X342998Y349499D02*
X343998Y348499D01*
Y346500D01*
X342998Y345500D01*
X339000D01*
X338000Y346500D01*
Y348499D01*
X339000Y349499D01*
X338000Y351498D02*
Y353497D01*
Y352498D01*
X343998D01*
X342998Y351498D01*
X343998Y360495D02*
X342998Y358496D01*
X340999Y356496D01*
X339000D01*
X338000Y357496D01*
Y359495D01*
X339000Y360495D01*
X339999D01*
X340999Y359495D01*
Y356496D01*
X329498Y350499D02*
X330498Y349499D01*
Y347500D01*
X329498Y346500D01*
X325500D01*
X324500Y347500D01*
Y349499D01*
X325500Y350499D01*
X324500Y352498D02*
Y354497D01*
Y353498D01*
X330498D01*
X329498Y352498D01*
X330498Y361495D02*
Y357496D01*
X327499D01*
X328499Y359496D01*
Y360495D01*
X327499Y361495D01*
X325500D01*
X324500Y360495D01*
Y358496D01*
X325500Y357496D01*
X314498Y337499D02*
X315498Y336499D01*
Y334500D01*
X314498Y333500D01*
X310500D01*
X309500Y334500D01*
Y336499D01*
X310500Y337499D01*
X309500Y339498D02*
Y341497D01*
Y340498D01*
X315498D01*
X314498Y339498D01*
X309500Y347496D02*
X315498D01*
X312499Y344496D01*
Y348495D01*
X380901Y332248D02*
X381901Y333248D01*
X383900D01*
X384900Y332248D01*
Y328249D01*
X383900Y327250D01*
X381901D01*
X380901Y328249D01*
X378902Y327250D02*
X376903D01*
X377902D01*
Y333248D01*
X378902Y332248D01*
X373904D02*
X372904Y333248D01*
X370904D01*
X369905Y332248D01*
Y331248D01*
X370904Y330249D01*
X371904D01*
X370904D01*
X369905Y329249D01*
Y328249D01*
X370904Y327250D01*
X372904D01*
X373904Y328249D01*
X349998Y301499D02*
X350998Y300499D01*
Y298500D01*
X349998Y297500D01*
X346000D01*
X345000Y298500D01*
Y300499D01*
X346000Y301499D01*
X345000Y303498D02*
Y305497D01*
Y304498D01*
X350998D01*
X349998Y303498D01*
X345000Y312495D02*
Y308496D01*
X348999Y312495D01*
X349998D01*
X350998Y311495D01*
Y309496D01*
X349998Y308496D01*
X339498Y303499D02*
X340498Y302499D01*
Y300500D01*
X339498Y299500D01*
X335500D01*
X334500Y300500D01*
Y302499D01*
X335500Y303499D01*
X334500Y305498D02*
Y307497D01*
Y306498D01*
X340498D01*
X339498Y305498D01*
X334500Y310496D02*
Y312496D01*
Y311496D01*
X340498D01*
X339498Y310496D01*
X329498Y301999D02*
X330498Y300999D01*
Y299000D01*
X329498Y298000D01*
X325500D01*
X324500Y299000D01*
Y300999D01*
X325500Y301999D01*
X324500Y303998D02*
Y305997D01*
Y304998D01*
X330498D01*
X329498Y303998D01*
Y308996D02*
X330498Y309996D01*
Y311996D01*
X329498Y312995D01*
X325500D01*
X324500Y311996D01*
Y309996D01*
X325500Y308996D01*
X329498D01*
X320998Y304499D02*
X321998Y303499D01*
Y301500D01*
X320998Y300500D01*
X317000D01*
X316000Y301500D01*
Y303499D01*
X317000Y304499D01*
Y306498D02*
X316000Y307498D01*
Y309497D01*
X317000Y310497D01*
X320998D01*
X321998Y309497D01*
Y307498D01*
X320998Y306498D01*
X319999D01*
X318999Y307498D01*
Y310497D01*
X295201Y233879D02*
X296201Y234878D01*
X298200D01*
X299200Y233879D01*
Y229880D01*
X298200Y228880D01*
X296201D01*
X295201Y229880D01*
X289203Y228880D02*
X293202D01*
X289203Y232879D01*
Y233879D01*
X290203Y234878D01*
X292202D01*
X293202Y233879D01*
X310701Y233379D02*
X311701Y234379D01*
X313700D01*
X314700Y233379D01*
Y229380D01*
X313700Y228380D01*
X311701D01*
X310701Y229380D01*
X308702Y228380D02*
X306703D01*
X307702D01*
Y234379D01*
X308702Y233379D01*
D59*
X303028Y249299D02*
X304602D01*
X303028Y236701D02*
X304602D01*
M02*
