G04*
G04 #@! TF.GenerationSoftware,Altium Limited,Altium Designer,19.1.5 (86)*
G04*
G04 Layer_Color=128*
%FSLAX25Y25*%
%MOIN*%
G70*
G01*
G75*
%ADD17O,0.06287X0.00381*%
%ADD18O,0.00381X0.06287*%
%ADD20R,0.04134X0.03937*%
%ADD21O,0.02362X0.08661*%
%ADD22R,0.06122X0.05118*%
%ADD25R,0.02264X0.02441*%
%ADD53R,0.03740X0.03937*%
%ADD54R,0.07874X0.13780*%
%ADD55R,0.09843X0.05906*%
D17*
X384650Y310795D02*
D03*
Y308827D02*
D03*
Y291110D02*
D03*
X428350Y285205D02*
D03*
Y293079D02*
D03*
Y295047D02*
D03*
Y297016D02*
D03*
Y300953D02*
D03*
Y287173D02*
D03*
D18*
X411421Y276150D02*
D03*
X421264D02*
D03*
X419295Y319850D02*
D03*
X417327D02*
D03*
X415358D02*
D03*
X411421D02*
D03*
X407484D02*
D03*
X397642D02*
D03*
X393705D02*
D03*
D20*
X332000Y293000D02*
D03*
X325701D02*
D03*
X411850Y338500D02*
D03*
X418150D02*
D03*
D21*
X417500Y233551D02*
D03*
X407500Y252449D02*
D03*
X412500D02*
D03*
D22*
X479150Y309358D02*
D03*
X447850Y291642D02*
D03*
Y309358D02*
D03*
D25*
X295500Y355520D02*
D03*
D53*
X338500Y334701D02*
D03*
Y341000D02*
D03*
X347000Y334201D02*
D03*
Y340500D02*
D03*
X328500Y335350D02*
D03*
Y341650D02*
D03*
X320000Y335350D02*
D03*
Y341650D02*
D03*
X336500Y317850D02*
D03*
Y324150D02*
D03*
X327500Y318350D02*
D03*
Y324650D02*
D03*
X319500Y319201D02*
D03*
Y325500D02*
D03*
X347000Y316850D02*
D03*
Y323150D02*
D03*
X372000Y314850D02*
D03*
Y321150D02*
D03*
D54*
X309130Y243000D02*
D03*
X298500D02*
D03*
D55*
X294500Y208980D02*
D03*
Y221500D02*
D03*
X312000Y208480D02*
D03*
Y221000D02*
D03*
M02*
