G04*
G04 #@! TF.GenerationSoftware,Altium Limited,Altium Designer,19.1.5 (86)*
G04*
G04 Layer_Color=8388736*
%FSLAX25Y25*%
%MOIN*%
G70*
G01*
G75*
%ADD26O,0.07487X0.01581*%
%ADD27O,0.01581X0.07487*%
%ADD28R,0.03241X0.03064*%
%ADD29R,0.04934X0.04737*%
%ADD30O,0.03162X0.09461*%
%ADD31R,0.06922X0.05918*%
%ADD32R,0.04737X0.04934*%
%ADD33R,0.03950X0.03950*%
%ADD34R,0.03064X0.03241*%
%ADD35O,0.06300X0.08300*%
%ADD36R,0.06300X0.08300*%
%ADD37R,0.06706X0.06706*%
%ADD38C,0.06706*%
%ADD39O,0.08300X0.06300*%
%ADD40R,0.08300X0.06300*%
%ADD41C,0.09265*%
%ADD42C,0.05800*%
D26*
X384650Y312764D02*
D03*
Y306858D02*
D03*
Y304890D02*
D03*
Y302921D02*
D03*
Y300953D02*
D03*
Y298984D02*
D03*
Y297016D02*
D03*
Y295047D02*
D03*
Y293079D02*
D03*
Y289142D02*
D03*
Y287173D02*
D03*
Y285205D02*
D03*
Y283236D02*
D03*
X428350D02*
D03*
Y289142D02*
D03*
Y291110D02*
D03*
Y298984D02*
D03*
Y302921D02*
D03*
Y304890D02*
D03*
Y306858D02*
D03*
Y308827D02*
D03*
Y310795D02*
D03*
Y312764D02*
D03*
D27*
X391736Y276150D02*
D03*
X395673D02*
D03*
X397642D02*
D03*
X399610D02*
D03*
X401579D02*
D03*
X403547D02*
D03*
X405516D02*
D03*
X407484D02*
D03*
X409453D02*
D03*
X413390D02*
D03*
X415358D02*
D03*
X417327D02*
D03*
X419295D02*
D03*
X421264Y319850D02*
D03*
X413390D02*
D03*
X409453D02*
D03*
X405516D02*
D03*
X403547D02*
D03*
X401579D02*
D03*
X399610D02*
D03*
X395673D02*
D03*
X391736D02*
D03*
X393705Y276150D02*
D03*
D28*
X292000Y277000D02*
D03*
X284520D02*
D03*
X288260Y267646D02*
D03*
D29*
X296650Y307000D02*
D03*
X290350D02*
D03*
X413000Y218500D02*
D03*
X406701D02*
D03*
X444000Y266000D02*
D03*
X450299D02*
D03*
X339799Y363500D02*
D03*
X333500D02*
D03*
X428350Y360000D02*
D03*
X434650D02*
D03*
X428850Y371500D02*
D03*
X435150D02*
D03*
X318650Y367000D02*
D03*
X312350D02*
D03*
X361500Y378000D02*
D03*
X367799D02*
D03*
D30*
X402500Y233551D02*
D03*
X407500D02*
D03*
X412500D02*
D03*
X402500Y252449D02*
D03*
X417500D02*
D03*
D31*
X479150Y291642D02*
D03*
D32*
X302500Y275000D02*
D03*
Y268701D02*
D03*
X332000Y388650D02*
D03*
Y382350D02*
D03*
D33*
X362004Y364000D02*
D03*
X368500D02*
D03*
D34*
X288146Y324760D02*
D03*
X297500Y328500D02*
D03*
Y321020D02*
D03*
X286146Y359260D02*
D03*
X295500Y363000D02*
D03*
D35*
X401874Y207000D02*
D03*
X435874D02*
D03*
D36*
X394000D02*
D03*
X428000D02*
D03*
D37*
X453000Y378000D02*
D03*
X389000Y375000D02*
D03*
D38*
X453000Y368000D02*
D03*
Y358000D02*
D03*
Y348000D02*
D03*
Y338000D02*
D03*
X389000Y365000D02*
D03*
D39*
X266500Y238126D02*
D03*
Y230252D02*
D03*
Y277626D02*
D03*
X268500Y320000D02*
D03*
X271000Y360500D02*
D03*
D40*
X266500Y246000D02*
D03*
Y285500D02*
D03*
X268500Y327874D02*
D03*
X271000Y368374D02*
D03*
D41*
X359500Y234000D02*
D03*
X349500D02*
D03*
X339500D02*
D03*
D42*
X397000Y336500D02*
D03*
X343000Y380000D02*
D03*
X385000Y330500D02*
D03*
X463000Y348000D02*
D03*
X406500Y267500D02*
D03*
X457000Y327000D02*
D03*
X439500Y275000D02*
D03*
X439000Y287500D02*
D03*
X438000Y302500D02*
D03*
X393705Y268500D02*
D03*
X412000Y293000D02*
D03*
X408500Y301500D02*
D03*
X398433Y291110D02*
D03*
X399500Y300500D02*
D03*
X393000Y310500D02*
D03*
X384000Y322000D02*
D03*
X360500Y293000D02*
D03*
Y308500D02*
D03*
X296650Y288000D02*
D03*
X362500Y352500D02*
D03*
X333500Y345000D02*
D03*
X318650Y355520D02*
D03*
X333500Y351000D02*
D03*
M02*
