G04*
G04 #@! TF.GenerationSoftware,Altium Limited,Altium Designer,19.1.5 (86)*
G04*
G04 Layer_Color=65535*
%FSLAX25Y25*%
%MOIN*%
G70*
G01*
G75*
%ADD10C,0.02362*%
%ADD11C,0.00984*%
%ADD12C,0.03000*%
%ADD13C,0.00787*%
%ADD14C,0.00500*%
%ADD15C,0.01000*%
%ADD16C,0.00300*%
D10*
X394886Y310795D02*
G03*
X394886Y310795I-1181J0D01*
G01*
X417087Y246937D02*
G03*
X417087Y246937I-1181J0D01*
G01*
D11*
X385142Y315520D02*
G03*
X385142Y315520I-492J0D01*
G01*
X421339Y252449D02*
G03*
X421339Y252449I-492J0D01*
G01*
X326862Y226126D02*
X372138D01*
X326862D02*
Y259591D01*
X372138Y226126D02*
Y259591D01*
X326862D02*
X372138D01*
D12*
X336271Y222008D02*
G03*
X336300Y222300I-1458J292D01*
G01*
D13*
X389768Y281268D02*
X423232D01*
X389768Y314732D02*
X423232D01*
Y281268D02*
Y314732D01*
X389768Y281268D02*
Y314732D01*
X293968Y270157D02*
Y274488D01*
X282551Y270157D02*
X293968D01*
X282551D02*
Y274488D01*
X293968D01*
X294205Y275866D02*
Y278130D01*
X400157Y235126D02*
Y250874D01*
X419843Y235126D02*
Y250874D01*
X400157Y235126D02*
X419843D01*
X400157Y250874D02*
X419843D01*
X448000Y333000D02*
X458000D01*
X448000D02*
Y383000D01*
X458000Y333000D02*
Y383000D01*
X448000D02*
X458000D01*
X296366Y318815D02*
X298630D01*
X294988Y319051D02*
Y330468D01*
X290657D02*
X294988D01*
X290657Y319051D02*
Y330468D01*
Y319051D02*
X294988D01*
X294366Y353315D02*
X296630D01*
X292988Y353551D02*
Y364968D01*
X288657D02*
X292988D01*
X288657Y353551D02*
Y364968D01*
Y353551D02*
X292988D01*
X384000Y360000D02*
X394000D01*
X384000D02*
Y380000D01*
X394000D01*
Y360000D02*
Y380000D01*
D14*
X382500Y179500D02*
Y207083D01*
Y214500D01*
X413000Y179500D02*
Y206709D01*
X382500Y179500D02*
X413000D01*
X382500Y214500D02*
X390500D01*
Y212709D02*
Y214500D01*
Y212709D02*
X395673D01*
X400201D01*
X405500D01*
Y214500D01*
X413000D01*
Y206709D02*
Y214500D01*
X416500Y179500D02*
Y207083D01*
Y214500D01*
X447000Y179500D02*
Y206709D01*
X416500Y179500D02*
X447000D01*
X416500Y214500D02*
X424500D01*
Y212709D02*
Y214500D01*
Y212709D02*
X429673D01*
X434201D01*
X439500D01*
Y214500D01*
X447000D01*
Y206709D02*
Y214500D01*
X233500Y246500D02*
Y254500D01*
Y221500D02*
Y229500D01*
X235500D02*
Y246500D01*
X233500D02*
X235500D01*
X233500Y229500D02*
X235500D01*
X239000Y219000D02*
Y221500D01*
Y254500D02*
Y257000D01*
X233500Y254500D02*
X239000D01*
X233500Y221500D02*
X239000D01*
X266500Y219000D02*
Y222000D01*
X239000Y219000D02*
X266500D01*
X239000Y257000D02*
X266500D01*
Y254000D02*
Y257000D01*
Y222000D02*
X274500D01*
Y226500D01*
X272209D02*
X274500D01*
X272209Y249500D02*
X274000D01*
Y254000D01*
X266500D02*
X274000D01*
X272209Y226500D02*
Y235862D01*
Y240390D01*
Y249500D01*
X364760Y363016D02*
X365744Y364000D01*
X364760Y363016D02*
Y364984D01*
X365744Y364000D01*
X266209Y266500D02*
X274000D01*
Y274000D01*
X272209D02*
X274000D01*
X272209D02*
Y279299D01*
Y283827D01*
Y289000D01*
X274000D01*
Y297000D01*
X239000Y266500D02*
Y297000D01*
Y266500D02*
X266209D01*
X266583Y297000D02*
X274000D01*
X239000D02*
X266583D01*
X268209Y308874D02*
X276000D01*
Y316374D01*
X274209D02*
X276000D01*
X274209D02*
Y321673D01*
Y326201D01*
Y331374D01*
X276000D01*
Y339374D01*
X241000Y308874D02*
Y339374D01*
Y308874D02*
X268209D01*
X268583Y339374D02*
X276000D01*
X241000D02*
X268583D01*
X270709Y349374D02*
X278500D01*
Y356874D01*
X276709D02*
X278500D01*
X276709D02*
Y362173D01*
Y366701D01*
Y371874D01*
X278500D01*
Y379874D01*
X243500Y349374D02*
Y379874D01*
Y349374D02*
X270709D01*
X271083Y379874D02*
X278500D01*
X243500D02*
X271083D01*
D15*
X376500Y278998D02*
Y274000D01*
X377500Y273000D01*
X379499D01*
X380499Y274000D01*
Y278998D01*
X386497Y273000D02*
X382498D01*
X386497Y276999D01*
Y277998D01*
X385497Y278998D01*
X383498D01*
X382498Y277998D01*
X289321Y370036D02*
Y374035D01*
X288322Y375034D01*
X286322D01*
X285323Y374035D01*
Y370036D01*
X286322Y369036D01*
X288322D01*
X287322Y371036D02*
X289321Y369036D01*
X288322D02*
X289321Y370036D01*
X291321Y374035D02*
X292320Y375034D01*
X294320D01*
X295320Y374035D01*
Y373035D01*
X294320Y372035D01*
X293320D01*
X294320D01*
X295320Y371036D01*
Y370036D01*
X294320Y369036D01*
X292320D01*
X291321Y370036D01*
X285999Y281500D02*
Y285498D01*
X284999Y286498D01*
X283000D01*
X282000Y285498D01*
Y281500D01*
X283000Y280500D01*
X284999D01*
X283999Y282499D02*
X285999Y280500D01*
X284999D02*
X285999Y281500D01*
X291997Y280500D02*
X287998D01*
X291997Y284499D01*
Y285498D01*
X290997Y286498D01*
X288998D01*
X287998Y285498D01*
X291321Y335536D02*
Y339535D01*
X290322Y340534D01*
X288322D01*
X287323Y339535D01*
Y335536D01*
X288322Y334536D01*
X290322D01*
X289322Y336536D02*
X291321Y334536D01*
X290322D02*
X291321Y335536D01*
X293321Y334536D02*
X295320D01*
X294321D01*
Y340534D01*
X293321Y339535D01*
X424500Y244998D02*
Y240000D01*
X425500Y239000D01*
X427499D01*
X428499Y240000D01*
Y244998D01*
X430498Y243998D02*
X431498Y244998D01*
X433497D01*
X434497Y243998D01*
Y242999D01*
X433497Y241999D01*
X432497D01*
X433497D01*
X434497Y240999D01*
Y240000D01*
X433497Y239000D01*
X431498D01*
X430498Y240000D01*
X370000Y218002D02*
Y223000D01*
X369000Y224000D01*
X367001D01*
X366001Y223000D01*
Y218002D01*
X364002Y224000D02*
X362003D01*
X363002D01*
Y218002D01*
X364002Y219002D01*
X320000Y378500D02*
Y372502D01*
X317001D01*
X316001Y373502D01*
Y375501D01*
X317001Y376501D01*
X320000D01*
X318001D02*
X316001Y378500D01*
X314002D02*
X312003D01*
X313002D01*
Y372502D01*
X314002Y373502D01*
X305005Y378500D02*
X309004D01*
X305005Y374501D01*
Y373502D01*
X306005Y372502D01*
X308004D01*
X309004Y373502D01*
X329500Y369000D02*
Y374998D01*
X332499D01*
X333499Y373998D01*
Y371999D01*
X332499Y370999D01*
X329500D01*
X331499D02*
X333499Y369000D01*
X335498D02*
X337497D01*
X336498D01*
Y374998D01*
X335498Y373998D01*
X340496Y369000D02*
X342496D01*
X341496D01*
Y374998D01*
X340496Y373998D01*
X306500Y280000D02*
X300502D01*
Y282999D01*
X301502Y283999D01*
X303501D01*
X304501Y282999D01*
Y280000D01*
Y281999D02*
X306500Y283999D01*
Y285998D02*
Y287997D01*
Y286998D01*
X300502D01*
X301502Y285998D01*
Y290996D02*
X300502Y291996D01*
Y293995D01*
X301502Y294995D01*
X305500D01*
X306500Y293995D01*
Y291996D01*
X305500Y290996D01*
X301502D01*
X289000Y311000D02*
Y316998D01*
X291999D01*
X292999Y315998D01*
Y313999D01*
X291999Y312999D01*
X289000D01*
X290999D02*
X292999Y311000D01*
X294998Y312000D02*
X295998Y311000D01*
X297997D01*
X298997Y312000D01*
Y315998D01*
X297997Y316998D01*
X295998D01*
X294998Y315998D01*
Y314999D01*
X295998Y313999D01*
X298997D01*
X418500Y219000D02*
Y224998D01*
X421499D01*
X422499Y223998D01*
Y221999D01*
X421499Y220999D01*
X418500D01*
X420499D02*
X422499Y219000D01*
X424498Y223998D02*
X425498Y224998D01*
X427497D01*
X428497Y223998D01*
Y222999D01*
X427497Y221999D01*
X428497Y220999D01*
Y220000D01*
X427497Y219000D01*
X425498D01*
X424498Y220000D01*
Y220999D01*
X425498Y221999D01*
X424498Y222999D01*
Y223998D01*
X425498Y221999D02*
X427497D01*
X456500Y263000D02*
Y268998D01*
X459499D01*
X460499Y267998D01*
Y265999D01*
X459499Y264999D01*
X456500D01*
X458499D02*
X460499Y263000D01*
X462498Y268998D02*
X466497D01*
Y267998D01*
X462498Y264000D01*
Y263000D01*
X359400Y384100D02*
Y390098D01*
X362399D01*
X363399Y389098D01*
Y387099D01*
X362399Y386099D01*
X359400D01*
X361399D02*
X363399Y384100D01*
X369397Y390098D02*
X367397Y389098D01*
X365398Y387099D01*
Y385100D01*
X366398Y384100D01*
X368397D01*
X369397Y385100D01*
Y386099D01*
X368397Y387099D01*
X365398D01*
X416350Y378500D02*
Y384498D01*
X419349D01*
X420349Y383498D01*
Y381499D01*
X419349Y380499D01*
X416350D01*
X418350D02*
X420349Y378500D01*
X426347Y384498D02*
X422348D01*
Y381499D01*
X424348Y382499D01*
X425348D01*
X426347Y381499D01*
Y379500D01*
X425348Y378500D01*
X423348D01*
X422348Y379500D01*
X413500Y358000D02*
Y363998D01*
X416499D01*
X417499Y362998D01*
Y360999D01*
X416499Y359999D01*
X413500D01*
X415499D02*
X417499Y358000D01*
X419498Y362998D02*
X420498Y363998D01*
X422497D01*
X423497Y362998D01*
Y361999D01*
X422497Y360999D01*
X421497D01*
X422497D01*
X423497Y359999D01*
Y359000D01*
X422497Y358000D01*
X420498D01*
X419498Y359000D01*
X329900Y394700D02*
Y400698D01*
X332899D01*
X333899Y399698D01*
Y397699D01*
X332899Y396699D01*
X329900D01*
X331899D02*
X333899Y394700D01*
X339897D02*
X335898D01*
X339897Y398699D01*
Y399698D01*
X338897Y400698D01*
X336898D01*
X335898Y399698D01*
X238200Y383100D02*
Y389098D01*
X241199D01*
X242199Y388098D01*
Y386099D01*
X241199Y385099D01*
X238200D01*
X244198Y388098D02*
X245198Y389098D01*
X247197D01*
X248197Y388098D01*
Y387099D01*
X247197Y386099D01*
X248197Y385099D01*
Y384100D01*
X247197Y383100D01*
X245198D01*
X244198Y384100D01*
Y385099D01*
X245198Y386099D01*
X244198Y387099D01*
Y388098D01*
X245198Y386099D02*
X247197D01*
X233700Y300226D02*
Y306224D01*
X236699D01*
X237699Y305224D01*
Y303225D01*
X236699Y302225D01*
X233700D01*
X239698Y306224D02*
X243697D01*
Y305224D01*
X239698Y301226D01*
Y300226D01*
X235700Y342626D02*
Y348624D01*
X238699D01*
X239699Y347624D01*
Y345625D01*
X238699Y344625D01*
X235700D01*
X245697Y348624D02*
X243697Y347624D01*
X241698Y345625D01*
Y343626D01*
X242698Y342626D01*
X244697D01*
X245697Y343626D01*
Y344625D01*
X244697Y345625D01*
X241698D01*
X451000Y208000D02*
Y213998D01*
X453999D01*
X454999Y212998D01*
Y210999D01*
X453999Y209999D01*
X451000D01*
X460997Y213998D02*
X456998D01*
Y210999D01*
X458997Y211999D01*
X459997D01*
X460997Y210999D01*
Y209000D01*
X459997Y208000D01*
X457998D01*
X456998Y209000D01*
X370500Y182000D02*
Y187998D01*
X373499D01*
X374499Y186998D01*
Y184999D01*
X373499Y183999D01*
X370500D01*
X379497Y182000D02*
Y187998D01*
X376498Y184999D01*
X380497D01*
X356000Y373998D02*
Y368000D01*
X359999D01*
X365997Y373998D02*
X361998D01*
Y368000D01*
X365997D01*
X361998Y370999D02*
X363997D01*
X367996Y373998D02*
Y368000D01*
X370995D01*
X371995Y369000D01*
Y372998D01*
X370995Y373998D01*
X367996D01*
X373994Y368000D02*
X375993D01*
X374994D01*
Y373998D01*
X373994Y372998D01*
X241500Y205252D02*
X235502D01*
Y208251D01*
X236502Y209251D01*
X238501D01*
X239501Y208251D01*
Y205252D01*
X236502Y211250D02*
X235502Y212250D01*
Y214249D01*
X236502Y215249D01*
X237501D01*
X238501Y214249D01*
Y213249D01*
Y214249D01*
X239501Y215249D01*
X240500D01*
X241500Y214249D01*
Y212250D01*
X240500Y211250D01*
X384600Y383400D02*
Y389398D01*
X387599D01*
X388599Y388398D01*
Y386399D01*
X387599Y385399D01*
X384600D01*
X394597Y383400D02*
X390598D01*
X394597Y387399D01*
Y388398D01*
X393597Y389398D01*
X391598D01*
X390598Y388398D01*
X448600Y386400D02*
Y392398D01*
X451599D01*
X452599Y391398D01*
Y389399D01*
X451599Y388399D01*
X448600D01*
X454598Y386400D02*
X456597D01*
X455598D01*
Y392398D01*
X454598Y391398D01*
D16*
X380000Y269998D02*
Y265000D01*
X382499D01*
X383332Y265833D01*
Y269165D01*
X382499Y269998D01*
X380000D01*
X387498Y265000D02*
X385831D01*
X384998Y265833D01*
Y267499D01*
X385831Y268332D01*
X387498D01*
X388331Y267499D01*
Y266666D01*
X384998D01*
X389997Y265000D02*
X392496D01*
X393329Y265833D01*
X392496Y266666D01*
X390830D01*
X389997Y267499D01*
X390830Y268332D01*
X393329D01*
X394995Y265000D02*
X396661D01*
X395828D01*
Y268332D01*
X394995D01*
X400827Y263334D02*
X401660D01*
X402493Y264167D01*
Y268332D01*
X399993D01*
X399161Y267499D01*
Y265833D01*
X399993Y265000D01*
X402493D01*
X404159D02*
Y268332D01*
X406658D01*
X407491Y267499D01*
Y265000D01*
X409990Y268332D02*
X411656D01*
X412490Y267499D01*
Y265000D01*
X409990D01*
X409157Y265833D01*
X409990Y266666D01*
X412490D01*
X414989Y269165D02*
Y268332D01*
X414156D01*
X415822D01*
X414989D01*
Y265833D01*
X415822Y265000D01*
X419154D02*
X420820D01*
X421653Y265833D01*
Y267499D01*
X420820Y268332D01*
X419154D01*
X418321Y267499D01*
Y265833D01*
X419154Y265000D01*
X423319Y268332D02*
Y265000D01*
Y266666D01*
X424152Y267499D01*
X424985Y268332D01*
X425818D01*
X428318Y265833D02*
X429151Y265000D01*
X430817D01*
X431650Y265833D01*
Y269165D01*
X430817Y269998D01*
X429151D01*
X428318Y269165D01*
Y268332D01*
X429151Y267499D01*
X431650D01*
X433316Y265000D02*
X434982D01*
X434149D01*
Y269998D01*
X433316Y269165D01*
X406500Y302998D02*
X409832D01*
X408166D01*
Y298000D01*
X413998Y302998D02*
X412331D01*
X411498Y302165D01*
Y298833D01*
X412331Y298000D01*
X413998D01*
X414831Y298833D01*
Y302165D01*
X413998Y302998D01*
X416497D02*
Y298000D01*
X419829D01*
X406500Y302998D02*
Y299666D01*
X408166Y298000D01*
X409832Y299666D01*
Y302998D01*
X411498Y298000D02*
Y301332D01*
X413165Y302998D01*
X414831Y301332D01*
Y298000D01*
Y300499D01*
X411498D01*
X416497Y302998D02*
Y298000D01*
X419829D01*
X406500D02*
Y302998D01*
X408999D01*
X409832Y302165D01*
Y300499D01*
X408999Y299666D01*
X406500D01*
X411498Y298000D02*
Y302998D01*
X414831Y298000D01*
Y302998D01*
X406500D02*
Y298000D01*
X408999D01*
X409832Y298833D01*
Y302165D01*
X408999Y302998D01*
X406500D01*
X414831D02*
X411498D01*
Y298000D01*
X414831D01*
X411498Y300499D02*
X413165D01*
X416497Y302998D02*
Y299666D01*
X418163Y298000D01*
X419829Y299666D01*
Y302998D01*
M02*
