M48
;Layer_Color=9474304
;FILE_FORMAT=2:5
INCH,LZ
;TYPE=PLATED
T1F00S00C0.02800
T2F00S00C0.03150
T3F00S00C0.03543
T4F00S00C0.04528
%
T01
X03605Y0293
Y03085
X0393Y03105
X03995Y03005
X04085Y03015
X0412Y0293
X0398433Y029111
X0393705Y02685
X04065Y02675
X04395Y0275
X0439Y02875
X0438Y03025
X029665Y0288
X031865Y035552
X03335Y0351
Y0345
X03625Y03525
X0385Y03305
X0384Y0322
X0397Y03365
X0457Y0327
X0463Y0348
X0343Y038
T02
X0394Y0207
X0401874
X0428
X0435874
X02665Y0230252
Y0238126
Y0246
Y0277626
Y02855
X02685Y032
Y0327874
X0271Y03605
Y0368374
T03
X0389Y0365
Y0375
X0453Y0378
Y0368
Y0358
Y0348
Y0338
T04
X03395Y0234
X03495
X03595
M30
