G04*
G04 #@! TF.GenerationSoftware,Altium Limited,Altium Designer,19.1.5 (86)*
G04*
G04 Layer_Color=8421504*
%FSLAX25Y25*%
%MOIN*%
G70*
G01*
G75*
%ADD17R,0.04134X0.03937*%
%ADD18R,0.03937X0.04134*%
%ADD19O,0.06287X0.00381*%
%ADD20O,0.00381X0.06287*%
%ADD21R,0.02441X0.02264*%
%ADD22O,0.02362X0.08661*%
%ADD23R,0.06122X0.05118*%
%ADD24R,0.03150X0.03150*%
%ADD25R,0.02264X0.02441*%
D17*
X367799Y378000D02*
D03*
X361500D02*
D03*
X296650Y307000D02*
D03*
X290350D02*
D03*
X413000Y218500D02*
D03*
X406701D02*
D03*
X444000Y266000D02*
D03*
X450299D02*
D03*
X339799Y363500D02*
D03*
X333500D02*
D03*
X428350Y360000D02*
D03*
X434650D02*
D03*
X428850Y371500D02*
D03*
X435150D02*
D03*
X318650Y367000D02*
D03*
X312350D02*
D03*
D18*
X332000Y382350D02*
D03*
Y388650D02*
D03*
X302500Y275000D02*
D03*
Y268701D02*
D03*
D19*
X384650Y312764D02*
D03*
Y306858D02*
D03*
Y304890D02*
D03*
Y302921D02*
D03*
Y300953D02*
D03*
Y298984D02*
D03*
Y297016D02*
D03*
Y295047D02*
D03*
Y293079D02*
D03*
Y289142D02*
D03*
Y287173D02*
D03*
Y285205D02*
D03*
Y283236D02*
D03*
X428350D02*
D03*
Y289142D02*
D03*
Y291110D02*
D03*
Y298984D02*
D03*
Y302921D02*
D03*
Y304890D02*
D03*
Y306858D02*
D03*
Y308827D02*
D03*
Y310795D02*
D03*
Y312764D02*
D03*
D20*
X391736Y276150D02*
D03*
X395673D02*
D03*
X397642D02*
D03*
X399610D02*
D03*
X401579D02*
D03*
X403547D02*
D03*
X405516D02*
D03*
X407484D02*
D03*
X409453D02*
D03*
X413390D02*
D03*
X415358D02*
D03*
X417327D02*
D03*
X419295D02*
D03*
X421264Y319850D02*
D03*
X413390D02*
D03*
X409453D02*
D03*
X405516D02*
D03*
X403547D02*
D03*
X401579D02*
D03*
X399610D02*
D03*
X395673D02*
D03*
X391736D02*
D03*
D21*
X292000Y277000D02*
D03*
X284520D02*
D03*
X288260Y267646D02*
D03*
D22*
X402500Y233551D02*
D03*
X407500D02*
D03*
X412500D02*
D03*
X402500Y252449D02*
D03*
X417500D02*
D03*
D23*
X479150Y291642D02*
D03*
D24*
X362004Y364000D02*
D03*
X368500D02*
D03*
D25*
X288146Y324760D02*
D03*
X297500Y328500D02*
D03*
Y321020D02*
D03*
X286146Y359260D02*
D03*
X295500Y363000D02*
D03*
M02*
