G04*
G04 #@! TF.GenerationSoftware,Altium Limited,Altium Designer,19.1.5 (86)*
G04*
G04 Layer_Color=65535*
%FSLAX25Y25*%
%MOIN*%
G70*
G01*
G75*
%ADD10C,0.02362*%
%ADD11C,0.00984*%
%ADD12C,0.03000*%
%ADD13C,0.00787*%
%ADD14C,0.00500*%
%ADD15C,0.00300*%
%ADD16C,0.01000*%
D10*
X394886Y310795D02*
G03*
X394886Y310795I-1181J0D01*
G01*
X417087Y246937D02*
G03*
X417087Y246937I-1181J0D01*
G01*
D11*
X385142Y315520D02*
G03*
X385142Y315520I-492J0D01*
G01*
X421339Y252449D02*
G03*
X421339Y252449I-492J0D01*
G01*
X326862Y226126D02*
X372138D01*
X326862D02*
Y259591D01*
X372138Y226126D02*
Y259591D01*
X326862D02*
X372138D01*
D12*
X336271Y222008D02*
G03*
X336300Y222300I-1458J292D01*
G01*
D13*
X394000Y360000D02*
Y380000D01*
X384000D02*
X394000D01*
X384000Y360000D02*
Y380000D01*
Y360000D02*
X394000D01*
X448000Y383000D02*
X458000D01*
Y333000D02*
Y383000D01*
X448000Y333000D02*
Y383000D01*
Y333000D02*
X458000D01*
X389768Y281268D02*
X423232D01*
X389768Y314732D02*
X423232D01*
Y281268D02*
Y314732D01*
X389768Y281268D02*
Y314732D01*
X293968Y270157D02*
Y274488D01*
X282551Y270157D02*
X293968D01*
X282551D02*
Y274488D01*
X293968D01*
X294205Y275866D02*
Y278130D01*
X400157Y235126D02*
Y250874D01*
X419843Y235126D02*
Y250874D01*
X400157Y235126D02*
X419843D01*
X400157Y250874D02*
X419843D01*
X296366Y318815D02*
X298630D01*
X294988Y319051D02*
Y330468D01*
X290657D02*
X294988D01*
X290657Y319051D02*
Y330468D01*
Y319051D02*
X294988D01*
X294366Y353315D02*
X296630D01*
X292988Y353551D02*
Y364968D01*
X288657D02*
X292988D01*
X288657Y353551D02*
Y364968D01*
Y353551D02*
X292988D01*
D14*
X243500Y379874D02*
X271083D01*
X278500D01*
X243500Y349374D02*
X270709D01*
X243500D02*
Y379874D01*
X278500Y371874D02*
Y379874D01*
X276709Y371874D02*
X278500D01*
X276709Y366701D02*
Y371874D01*
Y362173D02*
Y366701D01*
Y356874D02*
Y362173D01*
Y356874D02*
X278500D01*
Y349374D02*
Y356874D01*
X270709Y349374D02*
X278500D01*
X382500Y179500D02*
Y207083D01*
Y214500D01*
X413000Y179500D02*
Y206709D01*
X382500Y179500D02*
X413000D01*
X382500Y214500D02*
X390500D01*
Y212709D02*
Y214500D01*
Y212709D02*
X395673D01*
X400201D01*
X405500D01*
Y214500D01*
X413000D01*
Y206709D02*
Y214500D01*
X416500Y179500D02*
Y207083D01*
Y214500D01*
X447000Y179500D02*
Y206709D01*
X416500Y179500D02*
X447000D01*
X416500Y214500D02*
X424500D01*
Y212709D02*
Y214500D01*
Y212709D02*
X429673D01*
X434201D01*
X439500D01*
Y214500D01*
X447000D01*
Y206709D02*
Y214500D01*
X233500Y246500D02*
Y254500D01*
Y221500D02*
Y229500D01*
X235500D02*
Y246500D01*
X233500D02*
X235500D01*
X233500Y229500D02*
X235500D01*
X239000Y219000D02*
Y221500D01*
Y254500D02*
Y257000D01*
X233500Y254500D02*
X239000D01*
X233500Y221500D02*
X239000D01*
X266500Y219000D02*
Y222000D01*
X239000Y219000D02*
X266500D01*
X239000Y257000D02*
X266500D01*
Y254000D02*
Y257000D01*
Y222000D02*
X274500D01*
Y226500D01*
X272209D02*
X274500D01*
X272209Y249500D02*
X274000D01*
Y254000D01*
X266500D02*
X274000D01*
X272209Y226500D02*
Y235862D01*
Y240390D01*
Y249500D01*
X364760Y363016D02*
X365744Y364000D01*
X364760Y363016D02*
Y364984D01*
X365744Y364000D01*
X266209Y266500D02*
X274000D01*
Y274000D01*
X272209D02*
X274000D01*
X272209D02*
Y279299D01*
Y283827D01*
Y289000D01*
X274000D01*
Y297000D01*
X239000Y266500D02*
Y297000D01*
Y266500D02*
X266209D01*
X266583Y297000D02*
X274000D01*
X239000D02*
X266583D01*
X268209Y308874D02*
X276000D01*
Y316374D01*
X274209D02*
X276000D01*
X274209D02*
Y321673D01*
Y326201D01*
Y331374D01*
X276000D01*
Y339374D01*
X241000Y308874D02*
Y339374D01*
Y308874D02*
X268209D01*
X268583Y339374D02*
X276000D01*
X241000D02*
X268583D01*
D15*
X330000Y269998D02*
Y265000D01*
X332499D01*
X333332Y265833D01*
Y269165D01*
X332499Y269998D01*
X330000D01*
X337498Y265000D02*
X335831D01*
X334998Y265833D01*
Y267499D01*
X335831Y268332D01*
X337498D01*
X338331Y267499D01*
Y266666D01*
X334998D01*
X339997Y265000D02*
X342496D01*
X343329Y265833D01*
X342496Y266666D01*
X340830D01*
X339997Y267499D01*
X340830Y268332D01*
X343329D01*
X344995Y265000D02*
X346661D01*
X345828D01*
Y268332D01*
X344995D01*
X350827Y263334D02*
X351660D01*
X352493Y264167D01*
Y268332D01*
X349993D01*
X349161Y267499D01*
Y265833D01*
X349993Y265000D01*
X352493D01*
X354159D02*
Y268332D01*
X356658D01*
X357491Y267499D01*
Y265000D01*
X359990Y268332D02*
X361656D01*
X362490Y267499D01*
Y265000D01*
X359990D01*
X359157Y265833D01*
X359990Y266666D01*
X362490D01*
X364989Y269165D02*
Y268332D01*
X364156D01*
X365822D01*
X364989D01*
Y265833D01*
X365822Y265000D01*
X369154D02*
X370820D01*
X371653Y265833D01*
Y267499D01*
X370820Y268332D01*
X369154D01*
X368321Y267499D01*
Y265833D01*
X369154Y265000D01*
X373319Y268332D02*
Y265000D01*
Y266666D01*
X374152Y267499D01*
X374985Y268332D01*
X375818D01*
X378318Y265833D02*
X379151Y265000D01*
X380817D01*
X381650Y265833D01*
Y269165D01*
X380817Y269998D01*
X379151D01*
X378318Y269165D01*
Y268332D01*
X379151Y267499D01*
X381650D01*
X383316Y265000D02*
X384982D01*
X384149D01*
Y269998D01*
X383316Y269165D01*
X406500Y302998D02*
X409832D01*
X408166D01*
Y298000D01*
X413998Y302998D02*
X412331D01*
X411498Y302165D01*
Y298833D01*
X412331Y298000D01*
X413998D01*
X414831Y298833D01*
Y302165D01*
X413998Y302998D01*
X416497D02*
Y298000D01*
X419829D01*
X406500Y302998D02*
Y299666D01*
X408166Y298000D01*
X409832Y299666D01*
Y302998D01*
X411498Y298000D02*
Y301332D01*
X413165Y302998D01*
X414831Y301332D01*
Y298000D01*
Y300499D01*
X411498D01*
X416497Y302998D02*
Y298000D01*
X419829D01*
X406500D02*
Y302998D01*
X408999D01*
X409832Y302165D01*
Y300499D01*
X408999Y299666D01*
X406500D01*
X411498Y298000D02*
Y302998D01*
X414831Y298000D01*
Y302998D01*
X406500D02*
Y298000D01*
X408999D01*
X409832Y298833D01*
Y302165D01*
X408999Y302998D01*
X406500D01*
X414831D02*
X411498D01*
Y298000D01*
X414831D01*
X411498Y300499D02*
X413165D01*
X416497Y302998D02*
Y299666D01*
X418163Y298000D01*
X419829Y299666D01*
Y302998D01*
D16*
X376500Y278998D02*
Y274000D01*
X377500Y273000D01*
X379499D01*
X380499Y274000D01*
Y278998D01*
X386497Y273000D02*
X382498D01*
X386497Y276999D01*
Y277998D01*
X385497Y278998D01*
X383498D01*
X382498Y277998D01*
X289321Y370036D02*
Y374035D01*
X288322Y375034D01*
X286322D01*
X285323Y374035D01*
Y370036D01*
X286322Y369036D01*
X288322D01*
X287322Y371036D02*
X289321Y369036D01*
X288322D02*
X289321Y370036D01*
X291321Y374035D02*
X292320Y375034D01*
X294320D01*
X295320Y374035D01*
Y373035D01*
X294320Y372035D01*
X293320D01*
X294320D01*
X295320Y371036D01*
Y370036D01*
X294320Y369036D01*
X292320D01*
X291321Y370036D01*
X278499Y259000D02*
Y262998D01*
X277499Y263998D01*
X275500D01*
X274500Y262998D01*
Y259000D01*
X275500Y258000D01*
X277499D01*
X276499Y259999D02*
X278499Y258000D01*
X277499D02*
X278499Y259000D01*
X284497Y258000D02*
X280498D01*
X284497Y261999D01*
Y262998D01*
X283497Y263998D01*
X281498D01*
X280498Y262998D01*
X291321Y335536D02*
Y339535D01*
X290322Y340534D01*
X288322D01*
X287323Y339535D01*
Y335536D01*
X288322Y334536D01*
X290322D01*
X289322Y336536D02*
X291321Y334536D01*
X290322D02*
X291321Y335536D01*
X293321Y334536D02*
X295320D01*
X294321D01*
Y340534D01*
X293321Y339535D01*
X386500Y245998D02*
Y241000D01*
X387500Y240000D01*
X389499D01*
X390499Y241000D01*
Y245998D01*
X392498Y244998D02*
X393498Y245998D01*
X395497D01*
X396497Y244998D01*
Y243999D01*
X395497Y242999D01*
X394497D01*
X395497D01*
X396497Y241999D01*
Y241000D01*
X395497Y240000D01*
X393498D01*
X392498Y241000D01*
X370000Y218002D02*
Y223000D01*
X369000Y224000D01*
X367001D01*
X366001Y223000D01*
Y218002D01*
X364002Y224000D02*
X362003D01*
X363002D01*
Y218002D01*
X364002Y219002D01*
X320000Y378500D02*
Y372502D01*
X317001D01*
X316001Y373502D01*
Y375501D01*
X317001Y376501D01*
X320000D01*
X318001D02*
X316001Y378500D01*
X314002D02*
X312003D01*
X313002D01*
Y372502D01*
X314002Y373502D01*
X305005Y378500D02*
X309004D01*
X305005Y374501D01*
Y373502D01*
X306005Y372502D01*
X308004D01*
X309004Y373502D01*
X329500Y369000D02*
Y374998D01*
X332499D01*
X333499Y373998D01*
Y371999D01*
X332499Y370999D01*
X329500D01*
X331499D02*
X333499Y369000D01*
X335498D02*
X337497D01*
X336498D01*
Y374998D01*
X335498Y373998D01*
X340496Y369000D02*
X342496D01*
X341496D01*
Y374998D01*
X340496Y373998D01*
X306500Y280000D02*
X300502D01*
Y282999D01*
X301502Y283999D01*
X303501D01*
X304501Y282999D01*
Y280000D01*
Y281999D02*
X306500Y283999D01*
Y285998D02*
Y287997D01*
Y286998D01*
X300502D01*
X301502Y285998D01*
Y290996D02*
X300502Y291996D01*
Y293995D01*
X301502Y294995D01*
X305500D01*
X306500Y293995D01*
Y291996D01*
X305500Y290996D01*
X301502D01*
X275000Y299500D02*
Y305498D01*
X277999D01*
X278999Y304498D01*
Y302499D01*
X277999Y301499D01*
X275000D01*
X276999D02*
X278999Y299500D01*
X280998Y300500D02*
X281998Y299500D01*
X283997D01*
X284997Y300500D01*
Y304498D01*
X283997Y305498D01*
X281998D01*
X280998Y304498D01*
Y303499D01*
X281998Y302499D01*
X284997D01*
X418000Y218500D02*
Y224498D01*
X420999D01*
X421999Y223498D01*
Y221499D01*
X420999Y220499D01*
X418000D01*
X419999D02*
X421999Y218500D01*
X423998Y223498D02*
X424998Y224498D01*
X426997D01*
X427997Y223498D01*
Y222499D01*
X426997Y221499D01*
X427997Y220499D01*
Y219500D01*
X426997Y218500D01*
X424998D01*
X423998Y219500D01*
Y220499D01*
X424998Y221499D01*
X423998Y222499D01*
Y223498D01*
X424998Y221499D02*
X426997D01*
X442500Y254500D02*
Y260498D01*
X445499D01*
X446499Y259498D01*
Y257499D01*
X445499Y256499D01*
X442500D01*
X444499D02*
X446499Y254500D01*
X448498Y260498D02*
X452497D01*
Y259498D01*
X448498Y255500D01*
Y254500D01*
X369000Y382500D02*
Y388498D01*
X371999D01*
X372999Y387498D01*
Y385499D01*
X371999Y384499D01*
X369000D01*
X370999D02*
X372999Y382500D01*
X378997Y388498D02*
X376997Y387498D01*
X374998Y385499D01*
Y383500D01*
X375998Y382500D01*
X377997D01*
X378997Y383500D01*
Y384499D01*
X377997Y385499D01*
X374998D01*
X426500Y376500D02*
Y382498D01*
X429499D01*
X430499Y381498D01*
Y379499D01*
X429499Y378499D01*
X426500D01*
X428499D02*
X430499Y376500D01*
X436497Y382498D02*
X432498D01*
Y379499D01*
X434497Y380499D01*
X435497D01*
X436497Y379499D01*
Y377500D01*
X435497Y376500D01*
X433498D01*
X432498Y377500D01*
X413500Y358000D02*
Y363998D01*
X416499D01*
X417499Y362998D01*
Y360999D01*
X416499Y359999D01*
X413500D01*
X415499D02*
X417499Y358000D01*
X419498Y362998D02*
X420498Y363998D01*
X422497D01*
X423497Y362998D01*
Y361999D01*
X422497Y360999D01*
X421497D01*
X422497D01*
X423497Y359999D01*
Y359000D01*
X422497Y358000D01*
X420498D01*
X419498Y359000D01*
X316500Y386000D02*
Y391998D01*
X319499D01*
X320499Y390998D01*
Y388999D01*
X319499Y387999D01*
X316500D01*
X318499D02*
X320499Y386000D01*
X326497D02*
X322498D01*
X326497Y389999D01*
Y390998D01*
X325497Y391998D01*
X323498D01*
X322498Y390998D01*
X266500Y384000D02*
Y389998D01*
X269499D01*
X270499Y388998D01*
Y386999D01*
X269499Y385999D01*
X266500D01*
X272498Y388998D02*
X273498Y389998D01*
X275497D01*
X276497Y388998D01*
Y387999D01*
X275497Y386999D01*
X276497Y385999D01*
Y385000D01*
X275497Y384000D01*
X273498D01*
X272498Y385000D01*
Y385999D01*
X273498Y386999D01*
X272498Y387999D01*
Y388998D01*
X273498Y386999D02*
X275497D01*
X233700Y300226D02*
Y306224D01*
X236699D01*
X237699Y305224D01*
Y303225D01*
X236699Y302225D01*
X233700D01*
X239698Y306224D02*
X243697D01*
Y305224D01*
X239698Y301226D01*
Y300226D01*
X235700Y342626D02*
Y348624D01*
X238699D01*
X239699Y347624D01*
Y345625D01*
X238699Y344625D01*
X235700D01*
X245697Y348624D02*
X243697Y347624D01*
X241698Y345625D01*
Y343626D01*
X242698Y342626D01*
X244697D01*
X245697Y343626D01*
Y344625D01*
X244697Y345625D01*
X241698D01*
X437500Y218000D02*
Y223998D01*
X440499D01*
X441499Y222998D01*
Y220999D01*
X440499Y219999D01*
X437500D01*
X447497Y223998D02*
X443498D01*
Y220999D01*
X445497Y221999D01*
X446497D01*
X447497Y220999D01*
Y219000D01*
X446497Y218000D01*
X444498D01*
X443498Y219000D01*
X379500Y217000D02*
Y222998D01*
X382499D01*
X383499Y221998D01*
Y219999D01*
X382499Y218999D01*
X379500D01*
X388497Y217000D02*
Y222998D01*
X385498Y219999D01*
X389497D01*
X356000Y373998D02*
Y368000D01*
X359999D01*
X365997Y373998D02*
X361998D01*
Y368000D01*
X365997D01*
X361998Y370999D02*
X363997D01*
X367996Y373998D02*
Y368000D01*
X370995D01*
X371995Y369000D01*
Y372998D01*
X370995Y373998D01*
X367996D01*
X373994Y368000D02*
X375993D01*
X374994D01*
Y373998D01*
X373994Y372998D01*
X233500Y258500D02*
Y264498D01*
X236499D01*
X237499Y263498D01*
Y261499D01*
X236499Y260499D01*
X233500D01*
X239498Y263498D02*
X240498Y264498D01*
X242497D01*
X243497Y263498D01*
Y262499D01*
X242497Y261499D01*
X241497D01*
X242497D01*
X243497Y260499D01*
Y259500D01*
X242497Y258500D01*
X240498D01*
X239498Y259500D01*
X396500Y376500D02*
Y382498D01*
X399499D01*
X400499Y381498D01*
Y379499D01*
X399499Y378499D01*
X396500D01*
X406497Y376500D02*
X402498D01*
X406497Y380499D01*
Y381498D01*
X405497Y382498D01*
X403498D01*
X402498Y381498D01*
X449500Y385500D02*
Y391498D01*
X452499D01*
X453499Y390498D01*
Y388499D01*
X452499Y387499D01*
X449500D01*
X455498Y385500D02*
X457497D01*
X456498D01*
Y391498D01*
X455498Y390498D01*
M02*
